<svg width="1328" height="272" viewBox="0 0 1328 272" fill="none" xmlns="http://www.w3.org/2000/svg">
<path d="M612.651 143.684C612.651 214.189 555.496 271.344 484.991 271.344C414.486 271.344 357.331 214.189 357.331 143.684C357.331 73.1798 414.486 16.0238 484.991 16.0238C555.496 16.0238 612.651 73.1798 612.651 143.684" fill="#FFDA7D"/>
<path d="M403.607 243.811C400.751 243.811 397.858 243.119 395.23 241.971C390.807 240.037 387.017 236.916 383.451 233.664C380.514 230.984 377.503 227.819 377.207 223.855C376.999 221.044 378.183 218.519 380.01 216.34C381.085 217.891 382.195 219.42 383.338 220.92C383.331 221.167 383.327 221.403 383.327 221.627C383.327 221.707 383.327 221.785 383.329 221.861C383.329 221.864 383.329 221.868 383.329 221.871C383.329 221.969 383.33 222.087 383.369 222.203C383.449 222.585 383.65 222.988 383.931 223.391C384.234 223.833 384.637 224.276 385.099 224.697C385.803 225.363 386.607 225.945 387.293 226.388C388.982 227.475 388.942 229.567 392.001 233.088C393.278 234.559 395.329 235.743 397.462 236.612C400.086 239.085 402.811 241.445 405.637 243.691C404.965 243.772 404.287 243.811 403.607 243.811V243.811ZM612.578 148.029C612.627 146.587 612.651 145.139 612.651 143.684C612.651 136.476 612.054 129.409 610.906 122.527C613.398 121.66 614.79 122.02 619.494 120.873C621.466 120.392 622.915 119.591 624.379 119.591C625.667 119.591 626.966 120.211 628.641 122.215C631.334 125.435 624.643 130.447 622.514 134.063C619.61 138.999 616.626 144.027 612.578 148.029Z" fill="#F7E2CD"/>
<path d="M405.636 243.689C402.811 241.444 400.086 239.084 397.462 236.611C400.278 237.76 403.239 238.364 404.759 238.364C404.843 238.364 404.922 238.361 404.998 238.359C407.231 238.257 411.194 237.352 411.919 233.892C411.979 233.569 412.019 233.228 412.019 232.865C412.079 228.54 402.844 224.416 401.818 223.551C400.932 222.805 397.412 218.56 396.527 217.453C396.386 217.293 396.326 217.212 396.326 217.212C396.326 217.208 396.327 217.201 396.327 217.195L396.586 217.008C397.094 216.627 397.394 216.345 397.394 216.345C397.394 216.345 399.242 210.697 401.047 204.165C401.68 203.955 402.316 203.752 402.955 203.559C412.852 200.572 421.552 193.339 430.927 188.867C433.01 187.873 435.124 186.931 437.267 186.057C437.352 187.761 437.608 190.555 438.295 192.727C438.618 193.692 439 194.517 439.483 195.08C440.052 195.748 440.899 196.007 441.884 196.007C442.116 196.007 442.355 195.992 442.6 195.965C445.318 195.704 448.839 193.913 450.891 193.209C452.038 192.824 453.435 192.692 455.123 192.692C457.847 192.692 461.328 193.036 465.739 193.209C465.911 193.216 466.08 193.219 466.246 193.219C472.074 193.219 474.435 189.18 473.163 186.188C472.942 185.684 472.66 185.241 472.278 184.859C470.576 183.075 466.332 182.707 463.122 182.707C460.866 182.707 459.12 182.888 459.12 182.888L451.951 181.444C455.5 180.687 459.106 180.196 462.759 180.037C463.395 180.009 464.035 179.993 464.676 179.993C467.602 179.993 470.539 180.337 473.175 181.564C474.715 182.28 476.126 183.361 477.204 184.675L524.954 176.613C524.698 175.957 524.535 175.276 524.542 174.557C524.61 167.737 538.883 163.836 543.428 160.72C551.131 155.441 557.751 148.68 565.846 143.952C575.967 138.037 588.046 135.613 597.296 128.411C600.307 126.067 604.344 125.821 607.698 124.003C609.028 123.283 610.034 122.828 610.906 122.525C612.054 129.408 612.651 136.475 612.651 143.683C612.651 145.137 612.627 146.585 612.578 148.028C611.895 148.704 611.18 149.351 610.431 149.963C605.628 153.888 599.707 156.12 594.058 158.683C582.443 163.951 571.576 170.867 561.887 179.157C558.594 181.975 555.403 184.973 551.63 187.109C548.826 188.697 545.611 189.775 542.423 189.775C541.324 189.775 540.23 189.647 539.155 189.368C534.432 188.143 530.92 184.297 527.698 180.635C527.123 179.983 526.538 179.299 526.028 178.576L478.472 186.681C478.91 187.612 479.202 188.605 479.256 189.648C479.408 192.593 477.826 195.42 475.66 197.421C473.496 199.423 470.791 200.727 468.103 201.94C452.387 209.031 434.94 214.593 423.959 227.885C419.466 233.323 415.871 240.173 409.312 242.767C408.126 243.236 406.892 243.536 405.636 243.689V243.689ZM383.338 220.919C382.195 219.419 381.084 217.889 380.01 216.339C380.986 215.173 382.144 214.109 383.374 213.151C383.362 213.44 383.346 213.677 383.324 213.859C383.291 214.124 383.3 214.381 383.346 214.628C383.411 214.995 383.555 215.34 383.771 215.663C383.556 217.448 383.382 219.381 383.338 220.919" fill="#F7C165"/>
<path d="M578.01 138.598C579.598 142.262 580.183 143.252 583.979 142.495C587.179 141.858 587.582 138.623 586.83 137.632C586.221 136.83 585.087 136.675 584.078 136.664C583.415 136.658 583.133 136.579 582.835 135.856C582.202 134.323 583.059 130.812 583.238 129.914C583.369 129.259 584.538 126.755 584.851 126.164C585.661 124.638 585.981 123.019 586.506 121.374C585.175 121.856 582.298 124.755 580.969 125.238C579.803 125.659 579.777 119.668 578.763 120.374C577.97 120.923 576.762 127.136 576.689 128.01C576.367 131.867 576.015 134.003 578.01 138.598" fill="#632800"/>
<path d="M539.751 140.35C539.541 147.438 534.637 152.347 532.7 154.381C531.729 155.399 530.653 156.342 529.894 157.521C528.58 159.562 528.382 162.027 527.785 164.335C527.317 166.143 526.99 168.399 526.617 170.222C525.542 175.474 530.433 177.05 533.982 174.419C537.417 171.875 535.258 168.674 533.106 168.721C534.86 162.431 534.534 161.95 538.346 159.205C542.984 155.867 547.809 152.387 550.676 147.461C554.876 140.239 539.787 139.189 539.751 140.35" fill="#632800"/>
<path d="M591.798 69.4244C588.693 72.8457 587.328 77.7711 588.228 82.3031C588.269 82.5111 588.322 82.7337 588.481 82.8764C588.772 83.1337 589.224 82.9897 589.578 82.8351C590.41 82.4711 591.241 82.1071 592.073 81.7431C592.694 81.4711 593.328 81.1911 593.828 80.7351C594.909 79.7497 595.161 78.1724 595.348 76.7218C595.648 74.4071 599.49 70.2431 598.83 67.9937C598.112 65.5471 592.807 68.2897 591.798 69.4244" fill="#632800"/>
<path d="M615.933 75.2674C614.696 77.2114 608.994 81.3368 606.812 84.5168C605.057 87.0821 604.05 90.2447 603.377 93.7901C603.35 93.9434 603.317 94.0887 603.292 94.2421C602.9 96.3301 602.626 98.5541 602.362 100.855C602.269 101.717 602.176 102.587 602.081 103.473C601.161 112.065 597.163 107.163 597.018 107.309C596.779 107.555 596.847 104.794 596.507 104.819C592.594 105.109 593.2 102.493 589.373 101.614C587.268 101.137 585.205 100.259 583.474 98.9461C582.622 98.3074 581.088 100.915 580.44 100.063C579.494 98.8114 578.598 97.0888 579.587 96.0488C581.905 93.6208 584.343 90.3381 586.09 87.0141C586.687 85.8714 587.208 84.7287 587.609 83.6034C587.71 83.3314 587.803 83.0581 587.89 82.7861C589.355 78.1234 590.514 73.2048 593.514 69.3528C595.272 67.1021 596.634 66.9061 598.774 66.2247C600.811 65.5767 602.73 64.3834 605.278 64.4261C606.497 64.4514 607.979 65.7901 609.165 65.4914C610.486 65.1501 611.569 64.2127 612.83 63.6927C614.092 63.1727 616.154 63.5048 616.998 64.5874C618.285 66.2328 617.049 73.4861 615.933 75.2674" fill="#9B4D18"/>
<path d="M612.829 78.423L610.579 80.4937C609.215 81.739 607.851 83.0004 606.811 84.5177C605.056 87.083 604.049 90.2457 603.376 93.791C603.172 93.407 603.068 92.955 602.992 92.5217C602.285 88.3697 603.7 84.7137 603.035 80.5617C602.625 78.023 601.177 72.039 603.496 71.0164C604.876 70.411 607.143 70.3084 608.227 71.3564C609.556 72.6524 611.601 74.2377 612.036 76.0364C612.164 76.5737 612.505 77.4857 612.829 78.423" fill="#632800"/>
<path d="M602.08 101.326C602.055 107.574 601.927 113.958 599.754 119.814C599.396 120.76 598.978 121.715 598.279 122.447C597.759 122.994 597.12 123.394 596.43 123.718C595.978 123.939 595.51 124.127 595.04 124.306C586.022 127.775 576.424 130.52 569.016 136.724C566.716 138.643 564.687 140.867 562.506 142.922C562.054 143.356 561.602 143.774 561.132 144.183C558.414 146.57 555.235 148.632 551.663 149.187C550.248 149.399 548.783 149.366 547.435 148.906C545.355 148.19 543.762 146.519 542.355 144.839C541.384 143.688 540.447 142.47 539.952 141.055C538.86 137.91 540.13 134.466 541.571 131.458C542.44 129.642 543.378 127.843 544.563 126.207C549.235 119.746 557.135 116.464 562.667 110.736C564.423 108.912 565.932 106.858 567.782 105.144C569.146 103.892 570.671 102.834 572.171 101.752C575.999 98.9991 579.698 96.059 583.243 92.947C585.008 91.4044 586.235 89.5204 587.854 87.8924C588.928 86.819 590.156 86.759 591.614 86.6137C596.004 86.179 599.43 88.1404 601.015 92.367C602.08 95.1977 602.09 98.3004 602.08 101.326" fill="#9B4D18"/>
<path d="M596.429 123.718C595.977 123.939 595.509 124.127 595.04 124.306C586.021 127.775 576.424 130.521 569.016 136.725C566.716 138.643 564.687 140.867 562.505 142.922C561.943 142.811 561.431 142.598 561.149 142.231C560.365 141.217 561.371 140.373 562.087 139.427C563.656 137.347 565.48 135.473 567.475 133.793C571.472 130.426 576.092 127.869 580.9 125.841C582.391 125.218 583.916 124.63 585.255 123.726C586.345 122.994 587.291 122.065 588.229 121.143C591.443 117.99 594.741 114.683 596.336 110.471C596.361 114.887 596.396 119.302 596.429 123.718" fill="#632800"/>
<path d="M592.55 128.463C592.762 129.176 592.785 129.953 593.159 130.596C593.591 131.339 594.317 131.853 595.005 132.369C598.863 135.263 601.362 137.625 603.906 141.725C606.279 145.552 607.785 148.447 612.107 147.104C615.877 145.932 617.209 140.924 611.934 141.297C610.921 141.369 609.846 139.357 609.378 138.456C607.554 134.951 606.351 131.745 604.529 128.24C603.462 126.191 602.389 124.121 601.797 121.887C600.817 118.18 601.225 114.265 601.638 110.453C600.397 111.303 597.893 105.875 596.505 106.457C593.513 107.712 590.746 112.521 589.133 115.336C589.133 119.456 590.483 121.516 592.55 128.463" fill="#9B4D18"/>
<path d="M550.34 159.034C550.246 160.107 547.139 165.086 545.37 167.107C544.484 168.119 543.487 169.056 542.826 170.227C541.679 172.256 541.687 174.706 541.282 177.002C540.962 178.798 540.823 181.039 540.602 182.851C539.962 188.071 544.984 189.636 548.315 187.024C551.539 184.494 549.114 181.312 546.967 181.359C548.198 175.108 547.832 174.63 551.418 171.902C555.778 168.584 560.314 165.126 562.772 160.228C566.374 153.052 564.227 144.579 566.439 136.61C573.044 117.934 559.171 135.03 554.984 136.839C552.028 138.116 549.48 140.294 547.706 142.976C546.847 144.275 543.62 146.075 544.652 147.242C548.143 151.183 550.438 157.895 550.34 159.034" fill="#9B4D18"/>
<path d="M540.902 134.517C539.406 134.758 537.888 134.274 536.512 133.64C535.139 133.005 533.83 132.209 532.382 131.766C531.256 131.421 529.874 131.361 529.064 132.216C528.252 133.073 528.414 134.526 529.116 135.476C529.818 136.425 530.922 136.981 531.998 137.469C533.852 138.306 535.755 139.04 537.692 139.661C538.679 139.977 539.699 140.269 540.732 140.198C542.374 140.088 543.91 138.986 544.542 137.468C544.902 136.6 545.232 134.309 544.27 133.653C543.428 133.08 541.818 134.369 540.902 134.517" fill="#9B4D18"/>
<path d="M606.231 91.4303C606.452 92.1063 606.763 92.8156 607.383 93.1636C608.35 93.7063 609.54 93.129 610.494 92.561C611.758 91.8063 613.136 90.9023 613.468 89.4676C613.623 88.7943 613.52 88.093 613.418 87.4103C612.974 84.4863 612.531 81.5623 612.088 78.6396C611.912 77.477 611.734 76.301 611.29 75.213C610.592 73.497 609.271 72.089 607.766 71.0103C606.542 70.133 604.923 69.437 603.568 70.0916C599.803 71.9103 603.28 76.641 604.059 79.0996C605.327 83.1023 604.922 87.433 606.231 91.4303" fill="#9B4D18"/>
<path d="M603.291 94.2421C602.899 96.3301 602.626 98.5541 602.362 100.855C601.341 97.3448 599.669 94.3008 597.487 91.9755C594.615 88.9061 590.813 87.0901 587.054 86.9888C586.782 86.9795 586.449 86.9795 586.09 87.0141C586.687 85.8715 587.207 84.7288 587.609 83.6035C592.118 83.8515 596.601 86.0328 599.975 89.6395C601.246 90.9941 602.354 92.5368 603.291 94.2421Z" fill="#261B0D"/>
<path d="M455.134 110.292C455.528 109.599 456.41 109.359 457.1 109.753L591.21 87.1098L595.954 88.3498L455.672 112.258C454.982 111.864 454.739 110.984 455.134 110.292Z" fill="#261B0D"/>
<path d="M444.36 105.048L454.189 107.083L458.883 109.758L459.847 111.686L458.996 116.394C458.996 116.394 456.045 117.812 454.117 118.21C452.188 118.607 449.295 118.494 449.124 118.21C448.955 117.926 443.291 113.59 442.691 112.411C442.091 111.232 436.361 110.268 436.361 110.268L437.723 103.347L444.36 105.048" fill="#FFA27D"/>
<path d="M437.723 103.348C437.893 103.291 444.183 103.619 444.183 103.619C444.183 103.619 449.295 104.88 451.735 105.22C454.173 105.56 456.387 111.007 456.387 111.007C456.953 112.385 456.216 113.845 454.571 112.253L451.679 109.532C451.679 109.532 448.615 110.609 446.005 109.985C443.396 109.361 437.723 103.348 437.723 103.348" fill="#FFA27D"/>
<path d="M370.98 75.3599L372.659 92.4599L373.45 100.512L403.292 108C403.292 108 438.274 114.561 441.378 113.781L441.523 113.727C443.448 112.656 446.29 104.369 443.683 103.235C441.07 102.1 407.596 93.8133 407.596 93.8133C398.519 87.804 370.98 75.3599 370.98 75.3599Z" fill="#D13B3B"/>
<path d="M372.659 92.4599L373.45 100.512L403.293 108C403.293 108 438.274 114.561 441.378 113.781L441.523 113.727L404.465 103.344L372.659 92.4599Z" fill="#A31A1A"/>
<path d="M383.329 221.861C383.329 221.961 383.329 222.082 383.369 222.202C383.449 222.585 383.65 222.988 383.931 223.39C384.234 223.833 384.637 224.276 385.099 224.697C385.803 225.362 386.607 225.945 387.293 226.388C388.982 227.474 388.942 229.566 392.001 233.088C395.058 236.609 402.542 238.48 404.998 238.36C407.231 238.258 411.194 237.353 411.919 233.893C411.979 233.57 412.019 233.229 412.019 232.866C412.079 228.541 402.845 224.417 401.818 223.552C400.933 222.806 397.413 218.561 396.527 217.454C396.386 217.294 396.326 217.213 396.326 217.213C396.366 216.912 396.99 211.841 397.311 208.984C397.433 207.897 397.513 207.133 397.493 207.052H387.293C387.293 207.052 386.93 207.414 386.487 207.897C385.703 208.682 384.677 209.789 384.575 210.05C384.475 210.272 384.073 212.808 383.771 215.664C383.51 217.837 383.309 220.232 383.329 221.861" fill="black"/>
<path d="M435.459 178.744L436.083 180.796L437.208 184.538C437.208 184.538 437.208 184.7 437.23 184.981C437.25 186.269 437.431 189.992 438.295 192.728C438.618 193.693 439 194.518 439.483 195.081C440.187 195.906 441.314 196.108 442.6 195.966C445.318 195.705 448.839 193.914 450.891 193.21C453.888 192.204 458.596 192.929 465.739 193.21C471.936 193.452 474.471 189.266 473.163 186.189C472.942 185.685 472.66 185.242 472.278 184.86C469.38 181.822 459.12 182.889 459.12 182.889L449.824 181.017L449.483 180.514L445.258 174.197L436.486 178.261L435.459 178.744Z" fill="black"/>
<path d="M348.381 144.241C348.381 144.241 348.681 145.076 349.134 146.346C350.577 150.33 353.617 158.545 354.044 158.373C354.38 158.237 364.174 157.529 372.261 156.957C374.776 156.784 377.117 156.621 378.96 156.494C381.329 156.33 382.872 156.222 382.872 156.222L384.832 156.749L419.741 166.088C421.782 169.146 434.262 182.426 435.733 183.788C436.052 184.086 436.514 184.322 437.077 184.494L437.213 184.532C438.302 184.849 439.745 184.94 441.334 184.768C442.668 184.632 444.112 184.304 445.5 183.788C447.306 183.116 448.431 182.19 449.085 181.246C449.249 181.001 449.385 180.756 449.485 180.51C449.883 179.621 449.893 178.758 449.693 178.114C447.197 170.054 434.608 152.246 434.608 152.246C419.968 137.27 387.973 130.009 387.973 130.009L383.887 125.58L368.43 133.702L348.381 144.241" fill="#205687"/>
<path d="M435.766 186.059H437.267V183.818H435.766V186.059Z" fill="#8F925F"/>
<path d="M441.884 196.008C440.899 196.008 440.052 195.749 439.483 195.081C439 194.518 438.618 193.693 438.295 192.728C437.608 190.556 437.352 187.762 437.267 186.058C437.244 185.616 437.234 185.246 437.23 184.981C437.208 184.7 437.208 184.538 437.208 184.538L437.207 184.532L437.212 184.533C437.936 184.744 438.816 184.854 439.791 184.854C440.283 184.854 440.8 184.826 441.334 184.769L442.6 195.966C442.355 195.993 442.116 196.008 441.884 196.008Z" fill="black"/>
<path d="M403.528 183.693L403.506 183.667C401.858 180.421 398.106 174.912 394.195 169.455C398.12 174.929 401.887 180.453 403.528 183.693ZM399.547 160.685L384.838 156.752C385.492 157.627 386.242 158.627 387.054 159.716C386.239 158.624 385.49 157.625 384.831 156.749L399.547 160.685" fill="#8F925F"/>
<path d="M439.792 184.854C438.817 184.854 437.937 184.743 437.213 184.532L437.208 184.531L437.077 184.495C436.533 184.328 436.082 184.103 435.766 183.818C435.758 183.81 435.749 183.801 435.741 183.793C434.272 182.425 421.778 169.146 419.745 166.088L399.548 160.686L384.832 156.75C383.172 154.535 382.1 153.118 382.073 153.046C382.037 152.927 382.037 150.223 382.054 146.7C382.054 146.697 382.054 146.693 382.054 146.691L382.061 146.692L422.682 159.729L436.486 178.26L437.793 180.011L441.334 184.759V184.768C440.801 184.825 440.284 184.854 439.792 184.854" fill="#123967"/>
<path d="M353.136 164.955C355.296 167.451 385.358 189.461 383.996 191.621C382.635 193.773 383.66 211.018 383.324 213.86C383.243 214.513 383.415 215.112 383.77 215.657L383.96 215.929C384.795 217.009 386.338 217.836 387.972 218.407C388.852 218.707 389.751 218.924 390.586 219.069C392.755 219.45 395.034 218.134 396.322 217.2L396.586 217.009C397.094 216.628 397.394 216.347 397.394 216.347C397.394 216.347 405.671 191.05 404.31 185.604C404.192 185.122 403.919 184.478 403.52 183.697C400.443 177.616 389.896 163.493 384.831 156.751C383.171 154.536 382.099 153.119 382.072 153.047C382.036 152.928 382.036 150.224 382.054 146.701C382.072 140.003 382.144 130.381 382.072 130.011C382.072 130.011 375.664 131.453 368.43 133.704C359.69 136.419 349.742 140.303 348.38 144.243C348.144 144.915 347.98 145.621 347.872 146.348C346.8 153.428 351.184 162.695 353.136 164.955" fill="#205687"/>
<path d="M383.771 215.662C383.555 215.339 383.411 214.994 383.346 214.627C383.414 214.99 383.559 215.331 383.77 215.655L383.771 215.658C383.771 215.659 383.771 215.661 383.771 215.662Z" fill="#8B814D"/>
<path d="M385.099 224.697C384.636 224.276 384.234 223.833 383.931 223.391C383.65 222.988 383.448 222.585 383.368 222.203C383.33 222.087 383.328 221.969 383.328 221.871C383.328 221.868 383.328 221.864 383.328 221.861C383.327 221.785 383.327 221.707 383.327 221.627C383.327 220.008 383.522 217.736 383.771 215.664C383.771 215.663 383.771 215.661 383.771 215.66L383.96 215.929C384.795 217.009 386.338 217.836 387.972 218.407L385.099 224.697" fill="black"/>
<path d="M360.214 170.785C356.532 167.889 353.736 165.66 353.128 164.961C352.139 163.808 350.528 160.861 349.32 157.312C350.532 160.861 352.147 163.808 353.136 164.953C353.74 165.653 356.534 167.881 360.212 170.777C360.212 170.781 360.212 170.781 360.214 170.785" fill="#8FAAC3"/>
<path d="M383.61 192.951C383.709 192.333 383.834 191.873 383.993 191.621C384.977 190.07 369.674 178.229 360.214 170.786C360.213 170.782 360.213 170.782 360.213 170.778C369.669 178.22 384.977 190.066 383.997 191.621C383.837 191.873 383.71 192.333 383.61 192.951" fill="#8F925F"/>
<path d="M387.973 218.406C386.338 217.836 384.795 217.009 383.961 215.929L383.771 215.66L383.77 215.657C383.559 215.333 383.414 214.992 383.346 214.629C383.303 214.381 383.295 214.122 383.329 213.853C383.63 211.349 382.866 197.617 383.61 192.952C383.71 192.333 383.837 191.873 383.997 191.621C384.977 190.066 369.669 178.221 360.213 170.778C356.534 167.882 353.741 165.654 353.137 164.954C352.147 163.809 350.533 160.862 349.321 157.313C348.961 156.254 348.635 155.142 348.374 154.008C348.377 154.008 348.378 154.008 348.381 154.008C348.673 154.021 348.967 154.026 349.262 154.026C356.303 154.028 364.489 150.565 371.657 146.36C371.622 146.59 370.927 151.341 372.263 156.954C372.725 158.966 373.47 161.078 374.577 163.132C378.902 171.078 391.155 187.194 391.155 187.194C387.835 196.893 386.669 203.31 386.487 207.897C386.266 212.988 387.271 215.845 387.977 218.4L387.973 218.406Z" fill="#123967"/>
<path d="M331.297 113.671C334.156 132.423 341.627 153.727 348.38 154.007C355.613 154.316 364.191 150.74 371.661 146.356C373.885 145.049 376.009 143.669 377.969 142.299C378.205 142.135 378.441 141.972 378.668 141.808C379.748 141.037 380.711 140.275 381.555 139.529C387.453 134.348 387.972 130.009 387.972 130.009C387.517 125.471 381.619 115.94 379.576 111.629C377.533 107.317 381.619 84.8534 379.349 81.1681C377.08 77.4827 365.916 70.1134 348.671 75.1041C331.733 80.0147 330.563 92.7947 330.563 92.7947C329.673 98.0414 330.064 105.621 331.297 113.671" fill="#D13B3B"/>
<path d="M331.298 113.671C334.157 132.423 341.627 153.725 348.381 154.007C355.614 154.316 364.191 150.74 371.662 146.356L363.13 132.052L341.682 118.464L346.374 96.1987L331.298 113.671" fill="#A31A1A"/>
<path d="M366.687 149.701C366.872 149.701 367.059 149.666 367.24 149.592L450.373 115.057C451.108 114.753 451.457 113.908 451.152 113.173C450.845 112.439 450.004 112.092 449.267 112.395L366.133 146.928C365.399 147.233 365.049 148.079 365.355 148.813C365.587 149.368 366.123 149.701 366.687 149.701" fill="#261B0D"/>
<path d="M357.22 86.1983C359.036 86.6956 360.687 86.8596 361.65 86.6423C364.827 85.9343 366.987 79.181 366.987 79.181L365.652 77.837L355.642 67.7263L348.38 77.9289C347.899 82.1316 353.01 85.0529 357.22 86.1983Z" fill="#FFA27D"/>
<path d="M357.221 86.1979C357.311 90.9979 365.09 93.1672 366.179 91.0886C367.65 88.2659 368.685 83.7192 368.685 83.7192C368.685 83.7192 368.549 78.3646 365.653 77.8366L366.987 79.1806C366.987 79.1806 364.827 85.9339 361.65 86.6419C360.687 86.8592 359.037 86.6952 357.221 86.1979" fill="#A31A1A"/>
<path d="M360.65 86.7344C360.635 86.7344 360.62 86.7344 360.606 86.7344C359.743 86.7304 358.658 86.5704 357.494 86.269C357.49 86.2677 357.486 86.2677 357.483 86.2664C357.448 86.257 357.414 86.249 357.379 86.2397C357.37 86.237 357.359 86.2344 357.348 86.2304C357.306 86.2197 357.263 86.2077 357.22 86.197C357.194 84.4624 358.164 82.3837 360.834 80.033C362.68 78.4064 364.091 77.793 365.172 77.793C365.34 77.793 365.5 77.809 365.652 77.8357L366.987 79.1797C366.987 79.1797 364.827 85.933 361.65 86.641C361.643 86.6424 361.636 86.6437 361.63 86.6451C361.355 86.7051 361.027 86.7344 360.656 86.7344C360.654 86.7344 360.652 86.7344 360.65 86.7344" fill="#FF8961"/>
<path d="M360.65 86.7344C360.614 86.7344 360.577 86.7344 360.539 86.7344C360.562 86.7344 360.583 86.7344 360.606 86.7344C360.621 86.7344 360.635 86.7344 360.65 86.7344ZM360.657 86.7344C361.027 86.7344 361.355 86.7051 361.63 86.6451C361.355 86.7051 361.027 86.7344 360.657 86.7344ZM361.65 86.641C364.827 85.933 366.987 79.1797 366.987 79.1797C366.987 79.1797 364.827 85.933 361.65 86.641ZM357.494 86.269C357.49 86.2677 357.486 86.2677 357.483 86.2664C357.486 86.2677 357.49 86.2677 357.494 86.269ZM357.379 86.2397C357.37 86.237 357.359 86.2344 357.349 86.2304C357.359 86.2344 357.37 86.237 357.379 86.2397Z" fill="#A31614"/>
<path d="M372.934 85.3861C370.593 86.2608 365.492 85.0755 363.774 83.6808C360.333 80.8848 359.858 70.4141 362.498 66.8995C364.005 64.8928 366.513 63.8968 368.972 63.3981C373.928 62.3915 379.481 63.5275 379.432 68.7035C379.384 73.7128 377.585 83.6515 372.934 85.3861" fill="#FFA27D"/>
<path d="M378.004 70.3573C374.95 72.0466 371.59 73.7173 368.155 74.34C363.623 75.1626 366.735 77.956 362.671 77.6493C358.675 77.3493 357.268 79.5186 356.28 79.484C355.136 79.444 352.286 77.3119 351.48 76.4999C349.094 74.0973 348.851 70.6146 350.09 63.0653C351.48 54.5946 358.842 54.1186 362.995 53.5266C367.378 52.8999 376.28 55.4066 379.515 58.7866C383.339 62.7813 382.779 67.7173 378.004 70.3573" fill="#1A1A1A"/>
<path d="M361.312 73.9717C360.695 73.9464 360.131 74.377 359.819 74.9117C359.507 75.445 359.399 76.069 359.295 76.6784C359.164 77.4557 359.04 78.2917 359.383 79.001C359.791 79.8437 360.878 80.2837 361.758 79.9637C363.719 79.249 363.582 74.065 361.312 73.9717Z" fill="#FFA27D"/>
<path d="M359.399 164.296C359.399 164.296 361.157 160.643 360.318 155.78L362.162 155.219C362.162 155.219 363.533 166.809 359.026 166.512L357.79 165.421L359.399 164.296Z" fill="#261B0D"/>
<path d="M356.281 136.893C356.281 136.893 365.281 140.674 366.642 143.322C368.003 145.97 370.198 149.525 370.273 151.945C370.349 154.365 368.079 154.743 368.079 154.743C368.079 154.743 368.079 157.013 365.357 156.71C365.357 156.71 364.146 158.051 361.121 156.738C361.121 156.738 360.183 157.163 359.026 156.785C357.869 156.407 356.073 155.058 356.281 154.03C356.486 153.002 356.961 152.171 356.961 152.171C356.961 152.171 354.389 145.363 354.389 143.095C354.389 140.826 351.439 139.691 351.439 139.691L356.281 136.893" fill="#FFA27D"/>
<path d="M345.086 101.646C345.086 101.646 351.439 93.4009 340.514 88.7116C333.523 85.7116 331.735 88.7116 331.735 88.7116C331.735 88.7116 318.683 113.898 318.27 121.841C317.855 129.782 347.809 146.121 351.439 146.348C355.07 146.574 359.026 137.021 359.026 137.021L334.774 119.572L345.086 101.646" fill="#D13B3B"/>
<path d="M359.399 164.294L359.025 166.51C353.359 166.669 353.275 152.342 358.981 149.761C359.707 149.433 360.548 149.962 360.777 150.724C361.008 151.486 360.576 152.292 359.815 152.521C356.971 153.381 355.04 163.792 359.399 164.294Z" fill="#261B0D"/>
<path d="M1327.31 143.684C1327.31 214.189 1270.16 271.344 1199.65 271.344C1129.15 271.344 1071.99 214.189 1071.99 143.684C1071.99 73.1798 1129.15 16.0238 1199.65 16.0238C1270.16 16.0238 1327.31 73.1798 1327.31 143.684" fill="#FFC2C2"/>
<path d="M1232.76 209.041C1230.8 209.041 1229.03 208.269 1227.76 205.925C1226.74 204.062 1226.98 201.709 1227.92 199.804C1228.85 197.897 1230.39 196.361 1231.96 194.945C1237.9 189.618 1244.79 185.469 1251.62 181.354C1263.02 174.494 1274.41 167.633 1285.81 160.773C1288.9 158.914 1292.02 157.038 1295.45 155.937C1297.27 155.353 1299.2 155.002 1301.11 155.002C1302.8 155.002 1304.48 155.278 1306.05 155.913C1308.89 157.06 1311.15 159.262 1313.3 161.449C1315.06 163.244 1316.9 165.321 1316.93 167.833C1316.95 169.892 1315.69 171.793 1314.07 173.065C1312.45 174.338 1310.5 175.093 1308.58 175.853C1292.03 182.434 1276.2 190.841 1261.48 200.874C1258.3 203.038 1255.03 205.338 1251.24 205.962C1250.22 206.13 1249.19 206.17 1248.15 206.17C1247.67 206.17 1247.18 206.161 1246.69 206.153C1246.2 206.144 1245.71 206.134 1245.22 206.134C1244.86 206.134 1244.5 206.14 1244.13 206.153C1240.92 206.276 1236.48 209.041 1232.76 209.041" fill="#F5A4A4"/>
<path d="M1140.36 222.52C1136.77 222.52 1133.12 221.078 1129.81 219.48C1124.94 217.129 1120.25 214.405 1115.79 211.341C1113.32 209.638 1110.74 207.569 1110.13 204.628C1109.59 202.066 1110.74 199.388 1112.49 197.449C1114.25 195.509 1116.56 194.176 1118.83 192.874C1126.09 188.708 1133.42 184.649 1140.62 180.372C1142.87 179.034 1144.87 177.609 1146.94 176.438C1149.01 177.393 1151.36 178.2 1153.38 178.2C1155.35 178.2 1157.01 177.437 1157.8 175.308C1157.8 175.308 1157.78 174.853 1157.73 174.048C1161.81 174.55 1165.69 176.122 1169.51 177.678C1184.08 183.62 1198.64 189.561 1213.21 195.502C1206.12 198.917 1217.7 203.805 1212.94 210.074C1211.52 211.945 1200.92 212.646 1198.61 213.074C1198.31 213.13 1197.87 213.157 1197.33 213.157C1193.37 213.157 1183.88 211.793 1182.03 210.564C1178.54 208.24 1174.36 207.094 1170.17 207.094C1165.26 207.094 1160.35 208.664 1156.54 211.749C1152.26 215.205 1149.09 220.413 1143.83 222.02C1142.69 222.368 1141.53 222.52 1140.36 222.52" fill="#F5A4A4"/>
<path d="M1175.51 67.2569V94.3809L1184.23 118.945L1199.17 125.826L1190.71 89.8715L1193.44 48.4195L1179.03 45.7608L1175.51 67.2569" fill="#C7301C"/>
<path d="M1213.74 145.153L1213.13 157.539L1194.8 166.416C1194.8 166.416 1184.89 162.275 1184.65 161.957C1184.4 161.64 1181.92 155.695 1181.92 155.695L1171.06 137.544L1164.2 123.633L1170.74 114.143L1181.05 109.347L1193.4 115.889L1204.92 135.225L1213.74 145.153" fill="#C7B299"/>
<path d="M1194.8 166.416C1194.8 166.416 1184.89 162.275 1184.65 161.957C1184.4 161.64 1181.92 155.695 1181.92 155.695L1171.06 137.544L1164.2 123.633L1170.74 114.143L1181.05 109.347L1177.2 119.275L1181.05 130.728L1180.17 136.613L1181.92 144.539C1181.92 144.539 1187.86 156.687 1188.97 156.687C1190.08 156.687 1195.79 161.779 1195.79 161.779L1213.13 157.539L1194.8 166.416" fill="#9F8B77"/>
<path d="M1234.04 202.754C1242.4 207.582 1242.44 215.406 1234.14 220.23C1225.83 225.056 1212.33 225.056 1203.97 220.23C1195.62 215.406 1195.57 207.582 1203.87 202.754C1212.17 197.93 1225.69 197.93 1234.04 202.754Z" fill="#B3B3B3"/>
<path d="M1198.62 207.817L1202.02 201.406L1236 201.47L1239.4 207.893L1198.62 207.817" fill="#B3B3B3"/>
<path d="M1231.53 197.186C1238.5 201.209 1238.53 207.728 1231.62 211.748C1224.69 215.769 1213.45 215.769 1206.48 211.748C1199.52 207.728 1199.48 201.209 1206.4 197.188C1213.31 193.168 1224.57 193.168 1231.53 197.186Z" fill="#E6E6E6"/>
<path d="M1231.88 208.919C1231.27 209.515 1230.52 210.08 1229.63 210.599C1229.15 210.869 1228.66 211.125 1228.15 211.357C1222.77 213.751 1215.23 213.735 1209.86 211.311C1209.37 211.093 1208.9 210.853 1208.46 210.599C1207.38 209.979 1206.5 209.289 1205.82 208.555C1202.78 205.271 1203.63 201.105 1208.39 198.34C1214.22 194.956 1223.7 194.956 1229.56 198.34C1234.53 201.205 1235.3 205.588 1231.88 208.919Z" fill="#B3B3B3"/>
<path d="M1231.88 208.919C1231.27 209.515 1230.52 210.08 1229.63 210.599C1229.15 210.869 1228.66 211.125 1228.15 211.357C1222.77 213.751 1215.23 213.735 1209.86 211.311C1209.37 211.093 1208.9 210.853 1208.46 210.599C1207.38 209.979 1206.5 209.289 1205.82 208.555C1202.78 205.271 1203.63 201.105 1208.39 198.34C1214.22 194.956 1223.7 194.956 1229.56 198.34C1234.53 201.205 1235.3 205.588 1231.88 208.919Z" fill="#B3B3B3"/>
<path d="M1228.15 211.357C1222.77 213.751 1215.23 213.735 1209.86 211.311C1207.12 208.872 1207.59 205.573 1211.27 203.428C1215.52 200.965 1222.42 200.965 1226.69 203.428C1230.42 205.58 1230.91 208.903 1228.15 211.357" fill="#CCCCCC"/>
<path d="M1232.11 206.835C1232.04 207.059 1231.96 207.315 1232.04 207.996C1232.07 208.191 1231.99 208.531 1231.88 208.919C1231.27 209.515 1230.52 210.08 1229.63 210.599C1229.15 210.869 1228.66 211.125 1228.15 211.357C1222.77 213.751 1215.23 213.735 1209.86 211.311C1209.37 211.093 1208.9 210.853 1208.46 210.599C1207.38 209.979 1206.5 209.289 1205.82 208.555L1205.56 207.996V206.099H1206.64L1207.6 205.185L1208.2 203.389L1209.3 204.303L1209.63 202.033L1211.47 202.297L1212.9 200.817L1214.43 199.648L1215.57 201.097L1217.07 199.648L1218.03 200.616L1220.09 199.648L1221.4 200.957L1223.9 200.616L1224.85 200.679L1226.32 201.336L1227.34 200.616H1228.3C1228.3 200.616 1229.55 202.289 1229.62 202.505C1229.7 202.731 1230.72 203.823 1230.72 203.823L1232.19 204.303C1232.19 204.303 1232.19 206.617 1232.11 206.835" fill="#603813"/>
<path d="M1295.69 142.856C1295.04 144.688 1294.26 146.834 1293.32 149.366C1293 150.245 1292.96 150.613 1293.47 151.026C1295.56 152.71 1298.61 151.309 1298.38 155.708C1298.27 157.848 1296.78 162.209 1295.83 163.334C1294.67 164.73 1291.65 166.44 1290.1 166.476C1288.38 166.516 1287.22 165.309 1288.28 163.864C1289.51 162.196 1292.19 161.497 1292.19 161.497C1293.27 160.538 1293.79 157.025 1292.41 157.06C1291.49 157.084 1285.93 159.005 1284.61 158.257C1283.92 157.864 1284.13 158.064 1281.81 144.158C1281.73 143.638 1281.69 143.252 1281.85 142.788L1295.69 142.856" fill="#915413"/>
<path d="M1225.24 172C1224.17 172.948 1223.44 176.407 1223.44 178.912C1225.73 178.48 1227.87 177.301 1229.46 175.599C1230.96 173.996 1231.94 171.989 1232.84 169.991C1233.18 169.239 1233.29 168.617 1232.37 168.549C1228.98 168.304 1229.54 168.147 1225.24 172" fill="#915413"/>
<path d="M1258.63 177.995C1259.37 183.845 1257.87 184.122 1257.27 185.584C1256.89 186.514 1257.17 187.222 1258.27 187.578C1260.51 188.302 1261.62 187.51 1262.7 185.68C1264.65 182.379 1264.22 182.575 1262.86 168.486C1262.84 168.26 1259.49 168.743 1259.18 168.823C1256.93 169.404 1257.66 170.288 1258.63 177.995Z" fill="#915413"/>
<path d="M1232.79 172.177C1236.67 174.929 1240.08 176.345 1243.82 179.289C1244.16 179.022 1244.5 178.757 1244.84 178.492C1246.05 177.528 1247.23 176.59 1248.43 175.72C1250.22 174.41 1252.08 173.241 1254.26 172.324C1257.02 171.168 1260.17 171.208 1263.22 171.074C1265.78 170.968 1268.28 170.729 1270.4 169.553C1270.78 169.346 1271.15 169.101 1271.5 168.828C1276.53 164.92 1273.85 159.816 1293.96 151.342C1294.71 151.024 1295.5 150.698 1296.32 150.373C1296.46 150.313 1296.59 150.26 1296.73 150.206L1298.82 148.718C1298.33 149.07 1297.85 149.416 1297.36 149.768C1302.18 147.269 1304.91 141.321 1303.66 136.037C1303.37 134.821 1302.91 133.605 1303.05 132.362C1303.54 128.388 1312.38 119.968 1308.32 117.177C1306.5 117.914 1305.42 119.742 1304.22 121.29C1302.33 123.736 1300.73 128.076 1297.6 129.025C1286.41 132.429 1272.68 134.436 1262.65 138.762C1250.34 144.072 1239.42 159.996 1238.14 162.528C1237.51 163.777 1237.03 165.14 1236.51 166.476C1235.65 168.696 1234.69 170.834 1232.79 172.177" fill="#C9843A"/>
<path d="M1242.5 176.027C1243.45 176.671 1244.24 177.515 1244.84 178.492C1246.05 177.528 1247.23 176.591 1248.43 175.72C1250.22 174.411 1252.08 173.242 1254.26 172.324C1257.02 171.168 1260.17 171.208 1263.22 171.075C1263.34 170.856 1263.31 170.576 1263.28 170.324C1263.18 169.44 1263.24 165.619 1262.39 165.319C1261.61 165.054 1258.71 167.307 1257.96 167.712C1254.94 169.354 1251.73 171.115 1248.46 172.204C1246.24 173.108 1243.84 174.039 1242.5 176.027Z" fill="#915413"/>
<path d="M1232.79 172.177C1236.67 174.929 1240.08 176.345 1243.82 179.289C1245.41 178.046 1246.9 176.83 1248.43 175.72C1247.85 174.278 1246.53 172.729 1245.67 171.772C1244.37 170.324 1242.81 169.113 1241.09 168.21C1240.69 167.997 1237.94 166.761 1236.51 166.476C1235.65 168.696 1234.69 170.834 1232.79 172.177" fill="#261B0D"/>
<path d="M1221.2 196.783C1222 197.679 1223.49 199.204 1225.37 199.855C1227.31 200.527 1229.04 199.936 1230.4 199.381C1233.38 198.168 1232.31 195.977 1236.55 192.641C1239.52 189.73 1243.01 185.397 1243.66 184.181C1244.28 183.019 1245.74 179.164 1245.26 176.12C1245.15 175.448 1244.95 174.817 1244.63 174.265C1243.99 173.182 1242.97 172.379 1241.97 171.613C1240.76 170.677 1236.27 167.334 1232.88 167.992C1232.05 168.158 1231.33 168.664 1230.66 169.181C1219.53 177.768 1225.13 180.25 1223.44 185.506C1221.95 190.16 1219.77 195.187 1221.2 196.783" fill="#C9843A"/>
<path d="M1236.55 192.641C1239.52 189.73 1243.01 185.397 1243.66 184.181C1244.28 183.018 1245.74 179.163 1245.26 176.119L1245.12 175.914C1243.15 172.955 1242.23 171.694 1239.56 174.91C1237.22 177.727 1238.04 179.814 1238.87 181.675C1240.51 185.418 1237.42 188.886 1236.55 192.641" fill="#915413"/>
<path d="M1245.3 174.837C1248.82 178.796 1249.03 178.72 1249.28 180.832C1250.54 191.954 1249.16 191.741 1245.13 195.826C1244.32 196.649 1243.32 197.538 1242.18 197.365C1240.96 197.18 1240.27 195.861 1240.03 194.65C1239.14 190.128 1242.07 184.853 1239.52 180.721C1238.45 178.992 1236.91 178.066 1238.84 174.956C1241.04 171.401 1242.94 172.184 1245.3 174.837" fill="#C9843A"/>
<path d="M1269.79 158.496L1270.4 169.555C1270.78 169.348 1271.15 169.103 1271.5 168.829C1276.53 164.921 1273.85 159.817 1293.95 151.344C1294.24 151.856 1294.51 152.348 1294.77 152.82L1296.63 150.945L1296.32 150.375L1294.18 147.485C1294.18 147.485 1288.15 151.099 1283.42 153.424C1278.69 155.751 1269.79 158.496 1269.79 158.496Z" fill="#915413"/>
<path d="M1301.57 164.203C1303.17 164.941 1307.97 163.007 1308.88 162.973C1310.26 162.933 1311.08 166.423 1310.38 167.38C1310.38 167.38 1307.97 168.084 1307.39 169.745C1306.88 171.188 1308.51 172.377 1310.21 172.331C1311.74 172.284 1314.09 170.576 1314.72 169.187C1315.23 168.064 1315.03 163.731 1314.32 161.604C1312.85 157.239 1310.36 158.647 1307.62 156.985C1306.95 156.573 1306.85 156.215 1306.83 155.337C1306.5 134.881 1305.58 139.56 1303.44 134.104C1303.22 133.519 1303.11 132.935 1303.05 132.363C1302.94 131.432 1302.97 130.509 1302.81 129.552L1294.51 140.588C1286.41 150.017 1300.38 163.659 1301.57 164.203" fill="#C9843A"/>
<path d="M1251.94 198.698C1253.9 196.929 1254.79 197.706 1256.81 194.054C1258.43 191.114 1260.06 188.176 1261.68 185.237C1263.24 182.422 1262.92 183.072 1261.14 169.037C1261.09 168.641 1259.76 158.08 1259.83 157.688C1260.03 156.576 1267.09 154.606 1271.08 152.966C1273.67 151.908 1275.24 156.414 1273.74 161.398C1272 170.204 1270.89 180.224 1269.6 183.616C1268.94 185.369 1268.58 185.689 1259.93 197.8C1258.3 200.09 1257.2 201.488 1254.57 202.484C1253.47 202.898 1252.07 203.092 1251.28 202.232C1250.37 201.252 1250.95 199.593 1251.94 198.698" fill="#C9843A"/>
<path d="M1225.1 199.803L1225.37 199.854L1225.62 199.711C1225.85 199.514 1226.08 199.314 1226.31 199.11C1226.6 198.859 1226.9 198.512 1226.79 198.152C1226.7 197.892 1226.43 197.751 1226.18 197.642C1225.54 197.366 1224.88 197.129 1224.21 196.935C1223.6 196.756 1222.82 196.462 1222.18 196.475C1221.87 196.482 1221.84 196.481 1221.93 196.803C1222 197.056 1222.19 197.315 1222.33 197.532C1222.64 198.015 1223.02 198.451 1223.46 198.823C1223.95 199.235 1224.5 199.571 1225.1 199.803" fill="#261B0D"/>
<path d="M1143.91 166.425L1144.26 174.695C1144.26 174.695 1143.02 179.471 1143.13 183.201C1143.27 187.339 1147.62 187.797 1149.92 190.182C1151.11 191.421 1154.08 195.785 1157.06 197.501C1162.27 200.511 1170.5 201.661 1172.5 196.02C1173.96 191.938 1163.63 185.313 1163.63 185.313C1163.63 185.313 1157.39 180.809 1156.5 177.501C1155.62 174.194 1154.39 166.425 1154.39 166.425H1143.91" fill="#1A1A1A"/>
<path d="M1161.58 106.186C1161.69 107.525 1156.7 136.114 1156.48 141.863C1156.26 147.606 1157.8 175.306 1157.8 175.306C1154.99 182.811 1141.48 173.333 1141.48 173.333C1141.48 173.333 1140.38 168.266 1139.08 161.787C1137.38 153.322 1135.34 142.458 1134.94 137.29C1134.67 133.851 1138.55 117.137 1138.55 117.137C1138.55 117.137 1136.83 108.442 1133.66 95.3301C1132.33 89.7968 1130.73 83.4795 1128.9 76.6968C1122.73 53.8341 1160.58 79.6835 1160.58 79.6835C1160.58 79.6835 1161.47 104.842 1161.58 106.186" fill="#214B71"/>
<path d="M1139.08 161.781C1137.48 153.835 1135.58 143.765 1135.03 138.291C1134.99 137.937 1134.96 137.604 1134.94 137.291C1134.93 137.177 1134.92 137.048 1134.92 136.905C1134.92 132.761 1138.55 117.137 1138.55 117.137C1138.55 117.137 1136.83 108.443 1133.66 95.3306L1144.98 89.8706L1142.25 101.937C1142.25 101.937 1146.38 121.624 1140.93 130.717C1135.54 139.703 1139 161.281 1139.08 161.781" fill="#132F4D"/>
<path d="M1115.61 183.216L1115.95 191.487C1115.95 191.487 1114.71 196.262 1114.83 199.994C1114.96 204.131 1119.32 204.588 1121.61 206.974C1122.8 208.212 1125.78 212.576 1128.75 214.292C1133.97 217.303 1142.19 218.451 1144.2 212.811C1145.65 208.73 1135.33 202.104 1135.33 202.104C1135.33 202.104 1129.08 197.602 1128.2 194.294C1127.32 190.986 1126.08 183.216 1126.08 183.216H1115.61" fill="#1A1A1A"/>
<path d="M1124 52.1515C1124 52.1515 1102.44 59.2782 1107.8 83.9768C1113.16 108.677 1112.66 129.162 1112.66 129.162C1112.66 129.162 1108.18 147.218 1108.33 150.93C1108.72 160.794 1113.61 189.862 1113.61 189.862C1113.61 189.862 1126.79 200.106 1129.87 191.999C1129.87 191.999 1129.29 162.077 1129.72 155.869C1130.14 149.662 1136.13 118.777 1136.07 117.33C1136.01 115.882 1138.36 90.4142 1138.36 90.4142L1152.85 83.1248L1124 52.1515" fill="#214B71"/>
<path d="M1190.46 56.092C1190.34 57.152 1190.12 58.1667 1189.81 59.132C1186.64 68.9614 1174.6 74.0627 1172.77 74.7387C1170.75 75.4814 1164.73 82.6094 1154.57 84.804C1144.42 87 1133 80.1294 1128.9 76.6974C1127.49 75.5147 1126.36 74.2254 1125.47 72.88C1119.44 63.82 1124 52.1534 1124 52.1534L1128.81 48.8294C1132.58 47.1 1138.46 45.864 1147.55 39.6067C1159.34 31.4867 1169.44 28.0547 1179.6 30.0814C1187.46 31.6494 1191.81 44.268 1190.46 56.092" fill="#C7301C"/>
<path d="M1189.81 59.132C1186.64 68.9614 1174.6 74.0627 1172.77 74.7387C1170.75 75.4814 1164.73 82.6094 1154.57 84.804C1144.42 87 1133 80.1294 1128.9 76.6974C1127.49 75.5147 1126.36 74.2254 1125.47 72.88C1132.84 73.5827 1167.13 75.8254 1172.59 57.7667L1189.81 59.132" fill="#852013"/>
<path d="M1175.51 42.4678C1175.51 42.4678 1177.23 29.6772 1188.42 29.5798C1196.26 29.5118 1199.9 34.5892 1202.33 39.3145C1205.49 45.4399 1206.41 52.6758 1201.32 55.8385C1198.6 58.1665 1190.52 67.2559 1186.71 67.2559C1178.84 67.2559 1179.18 55.8465 1178.24 53.7638C1177.3 51.6798 1175.51 42.4678 1175.51 42.4678Z" fill="#F79974"/>
<path d="M1177.84 40.8915L1174.77 42.2662C1174.77 42.2662 1167.06 47.3542 1170.05 53.3355C1172.21 57.6688 1175.4 63.6875 1181.93 60.7342C1188.45 57.7808 1190.46 45.0581 1190.46 45.0581L1177.84 40.8915Z" fill="#F79974"/>
<path d="M1173.17 48.4186C1173.17 48.4186 1174.31 40.3839 1175.35 38.6106C1176.39 36.8372 1178.77 27.6319 1189.78 28.8146C1200.78 29.9973 1204.84 41.3972 1204.91 42.9186C1204.91 42.9186 1207.78 53.8319 1204.92 55.9453C1202.05 58.0599 1192.16 58.8359 1187.74 53.9359C1184.21 50.0079 1182.88 51.6999 1181.42 52.0372C1179.24 52.5439 1179.77 50.5719 1178.37 48.9279L1177.79 51.1706L1173.17 48.4186" fill="black"/>
<path d="M1175.08 46.5346C1175.38 45.7426 1175.91 45.0786 1176.66 44.8652C1177.42 44.6519 1178.4 44.9652 1179.03 45.7612C1179.83 46.7799 1179.82 48.1719 1179.6 49.2852C1179.45 50.0972 1179.2 50.8905 1178.71 51.4332C1178.21 51.9772 1177.43 52.2266 1176.65 51.8786C1174.54 50.9306 1174.49 48.0719 1175.08 46.5346" fill="#F79974"/>
<path d="M1152.55 51.292C1152.55 51.292 1144.02 54.6413 1144.01 68.5413C1144.01 82.4413 1147.8 95.6774 1149.53 99.884C1152.99 108.283 1161.33 133.793 1171.06 137.555C1171.06 137.555 1182.36 136.881 1177.83 128.777L1166.36 99.8907L1163.09 73.7747C1163.09 73.7747 1170.55 49.596 1152.55 51.292" fill="#C7301C"/>
<path d="M1171.24 136.298C1170.85 138.943 1171.34 142.558 1171.34 142.558V146.15L1172.64 149.246L1173.5 150.236L1174.67 151.784L1176.47 152.962L1177.55 153.859L1178.71 154.287L1179.78 155.346L1181.92 155.686L1180.31 152.59C1178.96 149.78 1178.71 147.156 1179.94 144.787L1181.92 144.539L1185.63 145.902L1186.79 146.106C1188.05 146.459 1188.58 145.423 1187.74 144.664L1184.02 141.815L1180.18 136.612L1178.19 133.944C1178.24 131.278 1171.58 133.927 1171.24 136.298" fill="#F79974"/>
<path d="M1186.38 160.227L1193.81 164.191L1211.97 156.683V146.191L1204.04 147.437L1194.8 149.659L1186.38 160.227" fill="#1A1A1A"/>
<path d="M1196.02 120.289C1195.79 121.061 1195.96 124.557 1196.02 125.36C1196.19 127.758 1196.85 130.141 1196.62 132.534C1196.54 133.32 1196.44 134.278 1197.09 134.732C1197.63 135.113 1198.43 134.856 1198.84 134.338C1199.24 133.822 1199.35 133.129 1199.38 132.472C1199.44 131.269 1199.4 128.292 1200.64 128.037C1201.7 129.826 1204.9 135.138 1205.1 135.516C1205.22 133.646 1205.34 131.777 1205.45 129.906C1205.5 129.125 1205.55 128.328 1205.36 127.568C1205.15 126.728 1204.66 125.989 1204.14 125.296C1202.97 123.728 1201.59 122.24 1200.04 121.037C1198.35 119.725 1196.57 118.441 1196.02 120.289" fill="#F79974"/>
<path d="M1186.38 160.227L1193.81 164.191L1197.68 170.611H1199.17V174.29L1202.23 175.934L1204.04 180.047L1206.19 181.112L1208.11 184.379L1210.65 178.198L1209.33 170.611L1211.97 166.416L1209.5 161.948L1209.23 158.494L1206.19 153.787C1206.19 153.787 1205.19 152.227 1204.04 151.768C1202.89 151.31 1194.8 149.659 1194.8 149.659L1186.38 160.227" fill="#603813"/>
<path d="M1210.65 181.612C1210.65 181.735 1210.16 183.387 1210.16 183.387L1211.52 184.379L1212.38 182.768V181.612H1210.65Z" fill="#603813"/>
<path d="M1210.16 186.195C1210.16 186.195 1209.54 187.68 1209.7 187.846C1209.87 188.011 1210.36 188.671 1210.65 188.547C1210.94 188.423 1211.6 187.763 1211.56 187.639C1211.52 187.515 1211.29 186.195 1211.29 186.195H1210.16" fill="#603813"/>
<path d="M1206.77 184.379C1206.73 184.543 1206.36 185.272 1206.52 185.486C1206.69 185.699 1207.35 186.524 1207.43 186.195C1207.51 185.863 1208.04 185.684 1208.11 185.486C1208.17 185.286 1208.11 184.708 1208.11 184.708L1206.77 184.379" fill="#603813"/>
<path d="M1208.14 189.538C1208.14 189.538 1207.43 191.148 1207.31 191.314C1207.18 191.478 1208.14 192.51 1208.14 192.51C1208.14 192.51 1209.41 192.139 1209.37 191.85C1209.33 191.56 1209.67 190.776 1209.67 190.776L1208.14 189.538Z" fill="#603813"/>
<path d="M1210.98 189.537C1210.98 189.537 1210.49 190.074 1210.65 190.197C1210.81 190.322 1211.56 190.734 1211.56 190.734C1211.56 190.734 1211.89 190.405 1211.97 190.136C1212.05 189.868 1211.97 189.249 1211.97 189.249L1211.29 188.562L1210.98 189.537Z" fill="#603813"/>
<path d="M1208.11 187.378C1208.11 187.378 1206.89 188.134 1207.02 188.217C1207.14 188.3 1208.11 188.562 1208.11 188.562C1208.11 188.562 1208.83 189.001 1208.83 188.836C1208.83 188.67 1209.21 187.97 1209.21 187.97L1208.11 187.378" fill="#603813"/>
<path d="M1213.21 192.51C1213.21 192.84 1213.21 194.451 1213.21 194.451L1214.2 195.152L1215.03 194.172L1215.32 193.171L1214.7 192.51L1214.26 192.964L1213.21 192.51" fill="#603813"/>
<path d="M1210.65 192.015V192.51L1211.31 193.006L1211.56 192.51C1211.56 192.51 1212.22 191.561 1211.97 191.602C1211.72 191.643 1211.29 191.809 1211.29 191.809L1210.65 192.015" fill="#603813"/>
<path d="M1213.95 188.874V190.034L1214.57 190.158C1214.57 190.158 1215.32 189.782 1215.32 189.516C1215.32 189.25 1215.32 188.564 1215.32 188.564L1214.26 188.126L1213.95 188.874" fill="#603813"/>
<path d="M1210.15 196.516C1210.15 196.516 1209.44 197.78 1209.67 197.675C1209.9 197.572 1210.65 198.529 1210.65 198.529C1210.65 198.529 1211.56 198.085 1211.56 197.961C1211.56 197.836 1212.21 197.593 1212.03 197.217C1211.85 196.841 1211.97 195.803 1211.97 195.803H1210.84L1210.15 196.516" fill="#603813"/>
<path d="M1209.21 194.172V195.152H1209.67L1210.16 194.663L1210.62 193.832L1209.67 193.46L1209.21 194.172Z" fill="#603813"/>
<path d="M1213.21 198.528C1213.13 198.579 1213 199.56 1213.21 199.647C1213.42 199.735 1214.08 200.491 1214.26 200.36C1214.45 200.229 1215.32 199.136 1215.32 199.136L1214.63 197.547H1213.54L1213.21 198.528" fill="#603813"/>
<path d="M255.322 143.684C255.322 214.189 198.166 271.344 127.661 271.344C57.1557 271.344 0.000976562 214.189 0.000976562 143.684C0.000976562 73.1798 57.1557 16.0238 127.661 16.0238C198.166 16.0238 255.322 73.1798 255.322 143.684" fill="#AEE6FF"/>
<path d="M69.4653 207.053C64.8748 207.053 57.6909 205.657 44.031 202.994C40.3106 202.269 36.4158 201.429 33.5461 198.953C28.7398 194.802 28.2164 187.349 23.8893 182.702C19.0101 177.463 9.36223 173.111 17.3237 165.411C19.2368 163.561 21.3538 161.953 23.6196 160.542C24.3909 160.995 25.2429 161.379 26.182 161.685C31.0544 163.275 36.7805 163.834 42.2925 163.883C42.6305 163.887 42.9685 163.889 43.3044 163.889C43.3701 163.889 43.4341 163.889 43.4992 163.889C45.4544 166.157 49.6773 167.206 54.8122 167.527C54.0409 168.189 53.271 168.897 52.5144 169.642C48.3144 173.793 44.4586 179.125 42.8013 184.457C46.6346 188.519 51.0268 189.365 54.018 189.365C56.1481 189.365 57.5674 188.935 57.5674 188.935L76.3038 173.941C78.045 172.925 79.4226 171.814 80.5122 170.691C81.1112 171.074 81.733 171.411 82.3617 171.698C87.7096 174.135 96.183 174.766 99.0362 180.661C99.9997 182.65 100.023 185.177 98.7226 186.965C96.421 190.13 91.5877 189.643 88.0862 191.391C82.4934 194.185 81.2705 202.091 75.9648 205.398C74.1778 206.511 72.3253 207.053 69.4653 207.053V207.053ZM214.873 190.543C210.705 190.543 206.534 189.806 202.709 188.345C199.427 187.091 196.315 185.251 194.398 182.589C192.479 179.926 191.959 176.339 193.735 173.601C194.027 173.153 194.361 172.747 194.726 172.371C189.661 171.151 183.763 169.906 179.322 169.462C180.077 170.419 180.773 171.413 181.327 172.495C182.277 174.347 180.218 177.854 175.706 177.854C175.299 177.854 174.871 177.826 174.425 177.765C169.198 177.051 165.626 174.197 160.398 173.485C156.182 172.909 152.65 173.238 148.763 171.507C144.046 169.406 139.421 166.902 135.343 163.733C129.382 159.101 122.72 155.377 115.658 152.705C106.54 153.686 96.6497 154.447 89.2857 155.929C87.6814 156.251 84.7314 156.186 82.1221 156.374C79.8128 153.053 76.2544 150.053 72.1529 147.427C72.0382 147.257 71.9232 147.086 71.8076 146.915C83.1778 145.798 95.7789 145.849 107.221 145.706C107.198 145.354 107.203 144.999 107.273 144.645C108.08 140.578 112.864 140.235 116.057 139.489C120.028 138.561 123.924 137.514 127.947 137.514C129.137 137.514 130.339 137.606 131.557 137.819C140.111 139.318 146.638 146.091 154.365 150.058C159.341 152.613 164.933 154.054 169.411 157.407C171.578 159.029 172.954 161.513 174.534 163.701C175.042 164.405 175.594 165.079 176.162 165.746C177.803 165.605 179.709 165.542 181.778 165.542C192.754 165.542 208.331 167.275 213.493 167.887C213.806 168.086 214.182 168.185 214.579 168.185C214.791 168.185 215.01 168.157 215.227 168.101C215.202 168.13 214.963 168.399 214.573 168.815C215.126 168.851 215.662 168.886 216.17 168.917C216.534 171.805 216.654 174.723 216.338 177.723C216.115 179.159 217.09 179.801 218.307 179.801C219.829 179.801 221.729 178.795 222.135 177.087C222.426 174.579 222.821 172.134 223.205 169.797C225.205 170.245 227.121 170.909 228.846 171.909C232.465 174.007 235.031 177.929 234.043 181.653C233.043 185.426 228.858 187.871 224.702 189.121C221.543 190.071 218.209 190.543 214.873 190.543" fill="#85C8EB"/>
<path d="M159.169 126.835V142.821L164.433 161.033L167.469 163.318C169.605 164.765 173.127 161.805 171.267 159.599L168.539 156.326L166.61 141.581L170.741 129.761C170.227 122.589 158.022 118.617 159.169 126.835" fill="white"/>
<path d="M133.554 139.093L130.718 119.781L125.078 124.899L128.352 139.692C128.352 140.543 128.715 141.352 129.351 141.919L130.654 143.079C133.359 145.272 136.465 142.604 135.466 141.073C134.678 139.867 133.554 139.093 133.554 139.093" fill="#CCCCCC"/>
<path d="M172.8 124.327L168.943 134.52C168.871 134.652 168.789 134.783 168.716 134.923C166.389 139.101 165.46 142.716 156.723 144.025C156.173 144.099 155.603 144.179 154.996 144.231L154.797 144.252L153.635 143.939L153.532 143.909L150.752 143.148L148.439 142.511C143.053 139.679 133.957 131 130.364 126.119C127.02 123.632 125.813 123.347 124.803 123.207C123.105 122.973 121.957 123.156 112.078 114.031C111.814 112.04 112.216 109.552 112.905 106.873C116.885 100.061 125.095 98.0493 132.537 102.82C137.96 106.273 144.516 110.152 147.085 111.645C147.788 112.061 148.191 112.296 148.191 112.296C149.083 112.472 149.939 112.655 150.781 112.823C152.544 113.181 154.161 113.511 155.552 113.796C156.181 113.928 156.767 114.045 157.293 114.148L159.028 112.296L170.941 122.695L172.8 124.327" fill="white"/>
<path d="M152.347 135.72C151.812 138.202 151.279 140.667 150.752 143.148L148.439 142.511C143.054 139.679 133.958 131 130.364 126.119C127.02 123.632 125.813 123.347 124.803 123.207C124.708 122.3 124.781 121.327 125.015 120.676C125.601 119.066 126.991 120.002 128.052 120.602C130.709 122.095 133.124 124.012 135.179 126.259C135.904 127.056 136.584 127.89 137.323 128.674C141.203 132.8 146.69 135.376 152.347 135.72" fill="#CCCCCC"/>
<path d="M113.445 106.017C113.445 106.017 111.711 108.431 111.482 112.793C111.382 114.696 111.883 118.268 112.138 120.123C112.343 121.616 111.947 123.129 111.047 124.337L108.775 127.388C108.274 128.061 108.003 128.879 108.003 129.717L107.504 142.631C107.504 143.481 107.867 144.291 108.502 144.857L109.833 145.972C112.538 148.164 115.315 145.648 114.559 143.984L112.603 141.564L113.372 132.131C121.864 132.056 127.277 126.5 129.632 118.759L113.445 106.017" fill="white"/>
<path d="M172.8 124.318L168.943 134.52C168.871 134.652 168.789 134.782 168.716 134.922C166.389 139.101 165.46 142.716 156.723 144.025C156.173 144.098 155.603 144.178 154.996 144.23C154.564 144.157 154.103 144.054 153.635 143.938L151.467 143.148C163.968 136.049 161.135 123.221 161.135 123.221L170.941 122.694L172.8 124.318" fill="#CCCCCC"/>
<path d="M171.791 127.002L170.741 129.761C169.733 130.08 168.641 130.238 167.494 130.238H167.346C163.886 130.196 160.289 128.657 158.166 126.322C155.789 123.69 154.494 118.958 155.142 115.318C155.237 114.777 155.375 114.268 155.555 113.801C156.183 113.708 156.467 113.549 157.033 113.466L159.026 112.294C158.123 113.08 157.509 114.204 157.233 115.69C156.691 118.704 157.794 122.746 159.747 124.901C161.457 126.79 164.522 128.084 167.377 128.116C168.609 128.148 170.242 127.925 171.791 127.002" fill="black"/>
<path d="M178.668 131.812L173.539 129.068C171.08 128.614 168.322 127.721 165.878 126.5C164.034 125.57 162.358 124.465 161.135 123.221L159.65 115.53L159.028 112.289L162.79 107.921L169.148 105.425C171.146 104.642 173.415 105.154 174.871 106.728L179.174 111.366C180.462 112.757 181.332 114.484 181.676 116.35L182.335 119.936L187.091 124.897C188.884 127.656 183.63 134.102 178.668 131.812Z" fill="white"/>
<path d="M183.509 127.241L186.747 125.069V126.827L185.693 128.215L185.389 129.857L185.273 128.469L183.83 128.412L183.509 127.241Z" fill="#1A1A1A"/>
<path d="M145.193 134.64V150.625L150.457 168.837L153.493 171.122C155.629 172.57 159.152 169.609 157.291 167.404L154.564 164.13L152.635 149.385L156.907 138.637C156.392 131.464 144.045 126.422 145.193 134.64" fill="white"/>
<path d="M120.814 71.8776C114.641 79.2736 113.109 92.9003 120.861 100.64C121.049 100.828 122.393 101.26 122.614 101.41C122.835 101.559 123.795 101.944 123.67 102.179L121.987 102.434C120.293 103.775 116.325 106.076 114.156 106.127C112.295 102.807 106.632 79.5803 120.814 71.8776" fill="white"/>
<path d="M126.271 106.921L131.731 107.524L139.862 107.037L146.93 107.708L152.667 109.917L155.892 112.025C156.14 112.186 156.312 112.441 156.371 112.732C156.428 113.022 156.367 113.322 156.2 113.568L155.81 114.14L156.123 114.356C156.303 114.481 156.424 114.676 156.455 114.893C156.486 115.112 156.426 115.333 156.287 115.504C155.911 115.968 155.291 116.158 154.719 115.985L153.936 115.749L153.498 116.213C152.858 116.888 151.838 117.036 151.034 116.569L147.164 114.325L141.678 114.44L145.763 115.593L146.696 116.137C147.07 116.354 147.336 116.716 147.432 117.137C147.528 117.558 147.447 118 147.206 118.358C147.044 118.598 146.742 118.697 146.47 118.6L144.288 117.81L138.439 116.786L134.451 115.768L129.559 112.769L124.457 110.766L126.271 106.921" fill="#FFA27D"/>
<path d="M41.805 186.372C38.7087 189.425 38.1112 195.722 38.6582 198.79C42.0306 201.178 45.0888 202.28 47.6582 201.361C54.8404 202.793 58.5472 204.777 62.4571 204.697C66.6144 204.613 69.5576 204.141 72.5519 200.796C73.7686 199.272 73.5697 195.761 70.5421 194.456C64.7306 192.674 59.5826 190.809 57.0847 188.613L54.4738 178.129L43.4811 182.92L41.805 186.372" fill="black"/>
<path d="M32.4623 155.542L37.88 163.324C37.88 163.324 43.7592 167.016 39.5201 170.16C37.5481 171.624 32.5481 171.253 32.5481 171.253C27.9315 170.228 29.3461 170.881 21.4732 161.546L15.9477 158.288C12.8711 156.473 11.1149 153.976 11.8154 150.473L12.7232 148.217L19.4909 140.56L24.0705 141.577L34.1883 146.781L32.4623 155.542Z" fill="black"/>
<path d="M24.9355 145.408L30.9397 155.433C35.0085 158.796 39.3757 157.748 42.8699 160.045C46.5938 162.489 54.8094 162.322 57.9105 163.766C77.1386 172.642 79.7157 170.394 79.7157 170.394C81.4553 167.261 80.3719 162.52 77.8949 157.254C76.3855 154.088 74.3834 150.724 72.1527 147.426C67.9689 141.192 63.047 135.186 59.4537 131.036C56.5173 127.624 54.4662 125.458 54.4662 125.458C54.4662 125.458 54.4662 125.458 52.7438 126.95C52.0381 127.574 47.0511 130.904 41.4886 134.58C40.0938 135.498 38.6345 136.45 37.2069 137.385C34.4834 139.19 31.8423 140.913 29.7094 142.308C26.8703 144.161 24.9355 145.408 24.9355 145.408" fill="#4F3685"/>
<path d="M26.1815 161.684C31.0539 163.275 36.7801 163.833 42.2921 163.883C53.8425 164.013 64.4905 161.848 64.6383 161.848C64.6055 161.881 64.4254 161.913 64.1295 161.979C61.0451 162.701 56.5987 165.621 52.5139 169.641C48.3139 173.792 44.4582 179.124 42.8009 184.456C49.3639 191.412 57.567 188.935 57.567 188.935L76.3034 173.94C84.6045 169.099 84.6373 162.093 84.6373 161.979C84.3091 160.437 83.7025 158.944 82.8487 157.5C80.6014 153.727 76.7129 150.347 72.1525 147.427C62.9149 141.488 50.9066 137.369 44.2613 135.384C43.1785 135.056 42.2425 134.777 41.4884 134.58C40.1108 134.187 39.3066 133.989 39.3066 133.989L20.0457 126.951C20.0457 126.951 9.77483 156.352 26.1815 161.684" fill="#3082C3"/>
<path d="M26.1318 140.552L29.7089 142.308L58.1736 156.252L77.8944 157.255L82.8485 157.5C80.6012 153.727 76.7126 150.347 72.1522 147.427C67.9684 141.192 63.0465 135.187 59.4532 131.036L44.261 135.384L37.2064 137.385L26.1318 140.552" fill="#0E609E"/>
<path d="M91.5346 95.1984L97.6876 99.3904C107.385 99.2037 131.731 107.525 131.731 107.525L129.559 112.77C115.498 113.838 91.559 110.16 91.559 110.16C89.9695 109.689 88.1346 109.025 86.1543 108.245C89.8658 105.462 91.6308 100.402 91.5346 95.1984" fill="#785238"/>
<path d="M82.295 88.504L91.8695 95.0253C91.9695 100.421 90.1382 105.668 86.2898 108.555C81.8163 106.795 76.5466 104.404 71.0762 101.855L82.295 88.504" fill="#785238"/>
<path d="M109.505 84.4244C109.505 84.4244 113.759 93.3231 104.326 99.9551C103.964 95.4991 102.368 91.4324 100.087 90.1457L109.505 84.4244" fill="black"/>
<path d="M17.8145 135.713C20.0786 138.174 22.9817 139.699 26.1161 140.553C35.0083 143.046 45.8854 140.339 50.4958 138.929C51.9234 138.502 52.7437 138.19 52.7437 138.19L68.9369 120.045C82.9807 110.627 79.5021 83.6552 79.5021 83.6552C58.289 70.0046 45.4755 86.0179 32.5474 99.3392C19.6187 112.662 17.8145 135.713 17.8145 135.713" fill="#785238"/>
<path d="M88.7388 157.308L89.5591 163.871C89.5591 163.871 50.7309 172.348 43.4841 163.871C43.4841 163.871 39.9305 160.18 42.3915 145.415L45.3992 118.89C47.7232 101.254 68.9388 106.312 64.144 122.508L56.6087 153.078L88.7388 157.308" fill="#FFA89F"/>
<path d="M84.6371 158.161L88.7387 157.308L94.9939 158.161L103.519 160.761L106.683 163.871V166.221L107.504 167.639V168.861L105.219 173.211C104.985 173.659 104.522 173.937 104.017 173.937H103.519L103.185 174.632C103.029 174.956 102.679 175.139 102.325 175.081L102.048 175.036C101.906 175.013 101.782 174.929 101.707 174.807C101.633 174.684 101.617 174.535 101.663 174.399L101.864 173.797L101.554 173.455C101.074 172.925 101.015 172.136 101.412 171.54L102.171 170.401L101.454 168.861L95.3616 167.639L89.559 163.871L80.7236 162.709L84.6371 158.161" fill="#FFA27D"/>
<path d="M89.5594 101.902C89.2522 102.21 77.7537 106.965 77.7537 106.965C77.7537 106.965 70.6924 100.774 73.5637 88.7769C76.298 88.0595 79.4813 84.7542 83.9203 81.7022L89.5594 101.902Z" fill="#FFA27D"/>
<path d="M78.6191 85.7119C78.6191 85.7119 81.2181 72.4732 94.4815 72.4732C94.4815 72.4732 109.349 75.1399 108.53 88.3679C108.53 88.3679 106.992 96.6732 102.274 98.8265L101.619 101.743C101.457 102.463 100.883 103.019 100.158 103.157L98.6858 103.44L95.191 106.435C93.8331 107.597 92.0025 108.088 90.267 107.664C88.6347 107.265 86.6009 106.297 84.6373 104.085C80.3306 99.2359 78.6191 85.7119 78.6191 85.7119" fill="#FFA27D"/>
<path d="M106.771 93.6931C103.22 95.9904 95.644 91.2584 91.4743 95.7851C91.4743 95.7851 85.6606 99.9744 81.2185 94.7357C76.7762 89.4957 77.2606 86.7451 77.2606 86.7451C77.2606 86.7451 80.5664 73.0837 89.5596 71.7224C97.695 70.4917 102.754 74.1024 106.309 78.4504C109.863 82.7971 112.225 90.1624 106.771 93.6931" fill="black"/>
<path d="M90.9462 92.9386C90.3711 92.8266 89.7711 92.9306 89.2227 93.1346C87.7525 93.6813 86.5831 94.9733 86.1858 96.4906C85.9915 97.2293 86.0055 98.1039 86.5358 98.6559C86.9201 99.0559 87.5149 99.2066 88.067 99.1479C88.6191 99.0906 89.1363 98.8479 89.6102 98.5573C90.6134 97.9466 91.8821 96.9146 92.3301 95.7839C92.8014 94.5919 92.2643 93.1959 90.9462 92.9386" fill="#FFA27D"/>
<path d="M34.2581 141.568C34.257 141.568 34.2559 141.568 34.2549 141.568C37.283 141.568 40.2647 141.222 42.9205 140.752C40.2653 141.223 37.2841 141.568 34.2581 141.568Z" fill="#093A78"/>
<path d="M34.2542 141.568C31.5141 141.568 28.7361 141.284 26.1318 140.552C37.4356 136.808 44.4157 120.13 46.0641 115.783C45.7736 116.728 45.5474 117.763 45.399 118.89L42.9198 140.752C40.2641 141.222 37.2824 141.568 34.2542 141.568Z" fill="#4E312A"/>
<path d="M42.9199 140.752L45.3991 118.889C45.5475 117.763 45.7737 116.728 46.0642 115.783C46.3158 115.121 46.4434 114.745 46.4434 114.745L52.7434 124.228L50.4955 138.928C48.7319 139.467 46.0538 140.196 42.9199 140.752" fill="#A76679"/>
<path d="M42.8696 136.976C47.2962 140.77 54.6274 142.64 60.1915 140.538L57.9148 153.25L88.7388 157.308L89.5591 163.871C89.5591 163.871 50.731 172.348 43.4842 163.871C40.0534 160.308 42.2211 148.402 42.8696 136.976" fill="#785238"/>
<path d="M42.8701 136.977L44.9519 118.617C47.3951 100.077 69.6972 105.395 64.6576 122.421L60.192 140.539C54.3429 142.749 47.5232 140.965 42.8701 136.977" fill="#785238"/>
<path d="M160.541 110.531C160.541 110.531 157.908 105.619 157.4 104.924C156.631 103.874 157.135 103.77 157.135 103.77C157.135 103.77 164.991 104.271 167.949 108.555C170.908 112.84 160.541 110.531 160.541 110.531Z" fill="white"/>
<path d="M167.465 108.351C167.465 108.351 165.269 102.736 164.814 102.004C164.263 101.121 164.923 101.22 164.923 101.22C164.923 101.22 172.657 102.689 175.062 107.309C177.466 111.928 167.465 108.351 167.465 108.351" fill="white"/>
<path d="M220.326 85.8921C222.456 91.0734 226.207 92.4868 224.615 103.357L213.86 95.7961L214.699 88.4028L220.326 85.8921" fill="black"/>
<path d="M210.082 94.34C208.822 91.3226 206.723 89.6893 201.895 92.5547C197.69 95.2413 193.525 97.6173 189.449 99.336C185.813 99.98 180.579 102.123 175.21 104.487L175.534 107.529C181.006 107.396 186.513 107.44 191.179 106.544L205.403 100.473L210.082 94.34" fill="#FFB294"/>
<path d="M178.468 106.957L175.702 107.335L174.331 108.917L172.128 110.333C171.426 110.833 171.019 110.291 171.448 109.76L172.783 108.123L172.024 107.107L167.888 106.381C167.538 106.32 167.227 106.121 167.023 105.829L166.854 105.587L166.155 105.452C165.326 105.361 165.415 104.504 166.295 104.393L168.402 104.299L169.039 103.924C169.236 103.807 169.467 103.755 169.696 103.773L173.89 104.116L175.508 104.569L178.664 105.327L178.468 106.957" fill="#FFB294"/>
<path d="M212.748 166.858C213.403 169.169 217.348 168.413 217.646 164.976C217.328 163.997 217.102 162.976 216.938 161.93C216.538 159.392 216.5 156.742 216.427 154.292L212.991 152.105L205.142 147.11L207.762 153.912L208.03 154.606L212.748 166.858" fill="#FFB294"/>
<path d="M210.766 177.503C214.522 176.315 215.198 173.414 217.657 171.698C218.93 170.812 220.61 170.156 220.237 168.227C220.097 167.883 219.95 167.544 219.801 167.216C219.182 165.887 218.486 164.775 217.842 164.446L217.175 163.21C216.595 165.13 213.174 166.526 212.149 165.327C212.149 165.327 212.707 166.674 212.749 166.859C212.789 167.044 210.573 170.755 210.466 170.883C209.749 171.714 208.941 172.587 208.35 173.462C207.787 174.295 207.427 175.128 207.547 175.931C207.691 176.898 207.971 178.388 210.766 177.503" fill="white"/>
<path d="M210.766 177.503C214.522 176.315 215.198 173.414 217.657 171.698C218.93 170.812 220.61 170.156 220.237 168.227C220.097 167.883 219.95 167.544 219.801 167.216C217.511 169.584 216.533 172.663 212.349 174.68C211.03 173.642 209.709 172.727 208.35 173.462C207.787 174.295 207.427 175.128 207.547 175.931C207.691 176.898 207.971 178.388 210.766 177.503Z" fill="#DB572C"/>
<path d="M208.03 154.605C208.005 154.557 207.981 154.508 207.958 154.457C207.963 154.457 207.969 154.459 207.973 154.459L208.03 154.605Z" fill="#AEC3C9"/>
<path d="M214.037 158.109C211.827 156.889 209.085 156.671 208.03 154.607L207.973 154.46C209.642 154.716 211.363 154.844 213.07 154.844C213.145 154.844 213.218 154.844 213.293 154.843C213.534 155.939 213.786 157.027 214.037 158.109Z" fill="#FF9775"/>
<path d="M212.615 151.567H222.515C225.585 155.483 224.49 161.971 223.239 169.586C222.845 171.987 222.434 174.503 222.135 177.087C221.403 180.162 215.838 180.957 216.338 177.723C217.287 168.726 214.306 160.458 212.615 151.567Z" fill="#FFB294"/>
<path d="M214.52 189.064C216.378 189.41 218.723 188.924 220.116 187.61C221.887 186.185 221.648 184.08 221.903 182.785C222.119 181.736 222.374 181.38 222.59 180.613C222.711 179.264 223.051 178.804 222.44 177.184L222.335 176.92L222.424 174.83C221.352 176.474 217.018 176.102 216.512 174.83L216.315 177.245L213.526 183.513C213.074 184.312 212.759 185.11 212.559 185.832C212.158 187.27 213.051 188.79 214.52 189.064" fill="white"/>
<path d="M214.52 189.064C216.378 189.41 218.723 188.924 220.116 187.61C221.887 186.185 221.648 184.08 221.903 182.785C222.119 181.736 222.374 181.38 222.59 180.613C222.711 179.264 223.051 178.804 222.44 177.184C222.123 179.102 221.088 184.47 219.416 185.141C219.416 185.141 216.515 182.098 213.526 183.513C213.074 184.312 212.759 185.11 212.559 185.832C212.158 187.27 213.051 188.79 214.52 189.064" fill="#DB572C"/>
<path d="M222.957 169.787C222.727 165.086 222.81 161.627 222.149 158.41C221.346 154.504 215.445 155.467 213.563 154.839C214.514 154.826 215.458 154.771 216.382 154.678C218.95 154.415 221.37 153.842 223.383 152.952C224.194 154.598 224.499 156.57 224.501 158.798C224.502 161.951 223.891 165.615 223.239 169.586L222.957 169.787" fill="#FF9775"/>
<path d="M195.178 146.474C196.854 152.769 207.504 155.582 216.382 154.678C222.576 154.045 227.91 151.606 228.738 147.282C227.281 138.645 227.277 131.253 225.365 124.029C223.814 118.149 224.76 114.021 225.624 109.242C226.001 107.148 226.13 104.909 226.498 102.384L226.512 102.274C227.542 94.6144 219.57 92.7318 216.204 90.2571L206.078 89.8865C202.437 90.7745 201.964 92.7744 201.136 97.6784C199.82 107.969 199.068 116.677 197.821 122.362C195.824 131.501 194.244 142.969 195.178 146.474" fill="#DB572C"/>
<path d="M216.366 154.674C222.576 154.044 227.91 151.606 228.738 147.282C227.281 138.645 227.277 131.252 225.365 124.028C223.814 118.148 224.76 114.02 225.624 109.242C226.001 107.147 226.13 104.909 226.498 102.383L226.512 102.274L221.306 99.0805L220.534 112.111C220.349 116.607 220.726 121.581 221.92 126.547C225.01 137.899 222.404 146.974 216.366 154.674" fill="#AD350D"/>
<path d="M215.498 84.6862C215.524 84.8649 217.87 91.8929 217.87 91.8929C217.87 91.8929 213.583 100.28 207.907 97.1796C205.214 95.7076 206.75 91.6915 206.75 91.6915L208.084 84.2796L215.498 84.6862" fill="#FFB294"/>
<path d="M205.058 90.1953C205.035 90.0473 205.024 89.9646 205.024 89.9646L207.142 89.514L207.068 89.922L206.078 89.886C205.706 89.9767 205.367 90.0793 205.058 90.1953Z" fill="#AEC3C9"/>
<path d="M206.316 94.3008C205.514 92.7434 205.16 90.8448 205.058 90.1954C205.367 90.0794 205.706 89.9768 206.078 89.8861L207.068 89.9221L206.75 91.6914C206.75 91.6914 206.272 92.9408 206.316 94.3008Z" fill="#DB4A23"/>
<path d="M209.386 96.5762C209.232 96.5762 209.071 96.5668 208.902 96.5455C207.743 96.4042 206.908 95.4455 206.316 94.3002C206.272 92.9402 206.75 91.6908 206.75 91.6908L207.068 89.9215L207.142 89.5135L212.395 88.3975C212.395 88.3975 213.814 96.5762 209.386 96.5762Z" fill="#FF9775"/>
<path d="M213.27 88.8465C211.827 92.9665 206.354 96.1745 202.699 92.8478C201.412 91.6772 200.6 89.8278 200.224 87.2132C200.142 86.6385 197.871 86.7998 198.339 85.3798C198.675 84.3612 199.963 83.4438 199.987 82.3572C200.002 81.7305 200.028 81.0798 200.07 80.3998C200.07 80.3998 199.014 75.3771 202.788 71.3011C204.891 69.0291 211.866 66.1118 215.886 67.6905C228.93 72.8185 221.087 84.7185 221.087 84.7185L213.27 88.8465" fill="#FFB294"/>
<path d="M213.911 84.4596L211.385 82.357C210.161 81.6023 208.817 79.061 208.818 77.6436C202.067 79.061 199.115 78.0929 196.862 80.7356C196.862 80.7356 192.958 64.6809 214.885 66.5023C221.53 67.0556 224.631 73.9756 223.821 79.9796C222.519 89.6223 217.241 90.1543 217.241 90.1543C215.907 90.1543 214.769 89.1889 214.55 87.8729L213.911 84.4596Z" fill="black"/>
<path d="M214.566 82.4439C218.451 83.8705 215.307 88.5798 212.395 88.3972C212.395 88.3972 211.391 86.8012 211.987 84.6825C212.651 82.3212 213.902 82.1999 214.566 82.4439Z" fill="#FFB294"/>
<path d="M233.771 129.26L234.26 131.602L237.163 136.073L238.036 139.004L238.446 142.296C238.574 142.901 238.166 143.312 237.938 142.96L238.138 144.354C238.284 145.364 237.668 145.444 237.35 144.573L235.874 140.045L236.859 144.82C237.032 145.722 236.34 145.846 236.063 144.948L234.316 139.876L234.886 143.917C235.024 144.982 234.435 145.218 234.044 144.158L231.846 137.474L231.296 140.013L230.844 141.31C230.515 142.149 229.762 141.796 229.95 140.817L230.086 139.558L229.787 137.314L231.172 132.574L231.814 129.329L233.771 129.26" fill="#FFB294"/>
<path d="M224.264 95.7946C226.442 96.6493 228.723 105.095 231.016 114.433C233.487 118.568 232.991 125.576 235.175 133.048C233.947 133.212 232.938 133.512 231.518 134.559C228.298 127.225 225.556 123.124 225.642 116.759C223.451 112.728 220.91 108.909 219.246 105.848C216.872 101.788 220.667 95.3999 224.264 95.7946" fill="#FFB294"/>
<path d="M969.982 143.684C969.982 214.189 912.826 271.344 842.322 271.344C771.817 271.344 714.662 214.189 714.662 143.684C714.662 73.1798 771.817 16.0238 842.322 16.0238C912.826 16.0238 969.982 73.1798 969.982 143.684" fill="#E4F27C"/>
<path d="M826.105 189.84C825.37 189.84 824.562 189.784 823.678 189.665C807.107 187.441 790.326 183.144 776.841 173.263C762.055 162.429 757.931 153.436 756.841 146.005C756.642 144.653 757.85 144.273 759.595 144.273C760.707 144.273 762.038 144.428 763.359 144.583C764.682 144.736 765.995 144.891 767.074 144.891C767.183 144.891 767.29 144.889 767.395 144.885C767.846 144.871 768.307 144.864 768.775 144.864C773.363 144.864 778.65 145.583 782.547 147.493C800.982 156.528 829.335 178.426 831.502 182.093C833.405 185.31 832.741 189.84 826.105 189.84" fill="#CBD657"/>
<path d="M892.601 233.943C889.005 233.943 885.406 233.773 881.826 233.433C876.514 232.926 870.825 231.837 867.17 227.949C860.279 220.621 864.151 207.589 857.849 199.75C854.37 195.422 847.871 192.622 847.782 187.07C847.722 183.391 850.873 180.313 854.349 179.103C857.823 177.894 861.602 178.097 865.281 178.055C868.35 178.021 870.715 176.991 873.285 176.217C873.331 176.387 873.378 176.558 873.426 176.727L870.519 177.514L866.319 178.641C866.319 178.641 865.327 178.565 863.882 178.565C863.161 178.565 862.325 178.583 861.443 178.641C859.137 178.79 856.473 179.202 854.691 180.178C850.866 182.259 852.479 187.342 861.274 188.485C865.043 188.973 867.107 189.085 868.513 189.142C870.407 189.198 871.138 189.105 873.238 189.535C876.371 190.193 876.953 192.349 880.965 193.117C882.898 200.599 884.773 207.894 886.01 212.902L886.066 213.071C886.515 214.758 887.397 216.165 888.579 217.271C890.174 218.734 892.274 219.615 894.562 219.634C894.711 219.635 894.862 219.637 895.014 219.637C896.435 219.637 897.921 219.553 899.345 219.315C900.45 219.129 901.445 218.641 902.25 217.966C903.677 216.747 904.519 214.89 904.463 212.921C904.378 210.217 904.197 206.394 903.807 201.877C905.721 207.257 907.057 212.885 908.369 218.451C909.425 222.933 910.193 228.406 906.753 231.465C904.726 233.266 901.821 233.602 899.114 233.757C896.945 233.882 894.773 233.943 892.601 233.943" fill="#CBD657"/>
<path d="M848.922 72.412L844.358 76.2093L835.466 77.9706L830.183 81.2827L827.892 84.064C827.722 84.2693 827.611 84.516 827.567 84.7787L827.436 85.5746L826.943 86.348C826.616 86.8587 826.628 87.5147 826.974 88.012L826.848 89.1253C826.906 89.724 827.752 90.0293 828.154 89.5827L828.83 88.5266L830.551 87.048L833.602 85.1853L837.574 86.064C837.574 86.064 837.902 86.8906 837.832 87.04C837.227 88.34 835.276 89.656 835.276 89.656L834.247 90.388C833.662 91.4 833.85 92.4573 834.959 92.0613L836.631 91.3773L842.634 87.7773L846.976 82.552L852.823 78.4333L848.922 72.412" fill="#FFA27D"/>
<path d="M886.056 36.1335L878.674 62.0895C876.01 64.4188 873.19 66.6188 870.398 68.6468C865.471 72.2308 860.626 75.2735 856.851 77.4988C852.536 80.0428 849.631 81.5215 849.631 81.5215C846.804 80.9108 844.964 78.9081 843.47 76.4428L862.48 58.8575L867.19 54.5001L867.879 53.8641L872.89 34.2161L886.056 36.1335Z" fill="#65B9E2"/>
<path d="M870.398 68.648C865.472 72.232 860.626 75.2747 856.852 77.5C858.27 74.716 859.594 71.888 860.608 68.94C861.7 65.76 862.43 62.4173 862.481 59.048V58.8587L867.19 54.5013C867.544 54.6467 867.853 54.8627 868.076 55.172C868.404 55.6187 868.498 56.1947 868.584 56.736C869.185 60.7067 869.794 64.6773 870.398 68.648" fill="#3792BD"/>
<path d="M870.573 224.039C870.573 224.039 870.078 228.155 878.586 229.207C887.094 230.257 891.395 229.207 891.395 229.207C891.395 229.207 897.897 231.288 901.527 229.673C905.161 228.059 904.205 226.912 904.205 226.912C903.949 222.555 902.722 218.251 900.445 214.007L890.59 210.375L889.175 217.047L881.805 219.719C881.805 219.719 871.658 220.331 870.573 224.039" fill="black"/>
<path d="M861.274 188.484C865.043 188.972 867.107 189.084 868.512 189.141C870.407 189.197 871.138 189.104 873.238 189.535C876.371 190.192 876.952 192.348 880.964 193.116C881.266 193.173 881.583 193.229 881.922 193.267C882.352 193.323 882.84 193.361 883.384 193.361V174.813L880.796 173.763L878.358 172.788L875.639 171.7L875.49 172.037L873.426 176.727L870.519 177.513L866.319 178.64C866.319 178.64 864.087 178.469 861.443 178.64C859.136 178.789 856.472 179.201 854.691 180.177C850.866 182.259 852.479 187.341 861.274 188.484" fill="black"/>
<path d="M866.451 127.274C869.694 147.866 869.468 162.606 873.426 176.727C874.456 177.627 875.508 178.415 876.615 179.071C876.896 179.222 877.158 179.371 877.44 179.502C877.608 179.614 877.795 179.709 878.003 179.783C879.202 180.366 880.458 180.777 881.771 181.022C882.296 181.115 882.84 181.19 883.384 181.227C885.11 181.378 886.91 181.246 892.725 180.909L890.586 138.977L891.128 127.181L897.055 111.578L900.45 102.633L896.736 101.357L887.772 98.2633L884.061 96.9886L877.251 94.6433L876.446 96.8006L872.919 106.253L869.226 116.191L866.938 122.305C866.338 123.881 866.187 125.605 866.451 127.274" fill="#785238"/>
<path d="M873.165 163.225C873.165 163.225 874.102 166.75 875.49 172.038C876.053 174.251 876.727 176.783 877.441 179.502C878.546 183.778 879.765 188.485 880.965 193.117C882.898 200.599 884.773 207.894 886.01 212.902L886.066 213.071C886.515 214.758 887.397 216.165 888.579 217.271C890.174 218.734 892.274 219.615 894.562 219.634C896.118 219.653 897.769 219.578 899.345 219.315C900.45 219.129 901.445 218.641 902.25 217.966C903.677 216.747 904.519 214.89 904.463 212.921C904.163 203.431 902.681 180.141 895.179 161.537L902.738 124.723C908.195 119.323 911.271 112.271 908.458 101.039C908.158 99.8007 907.783 98.526 907.333 97.1953L896.737 101.357L892.593 102.989L885.954 105.595L877.497 108.915C877.497 108.915 877.177 109.966 876.671 111.841C874.495 119.979 869.019 143.722 873.165 163.225Z" fill="#785238"/>
<path d="M872.919 106.252C872.714 105.369 872.602 104.413 872.582 103.345C872.544 102.669 871.832 100.119 870.97 96.5373L871.87 95.056L876.446 96.7999L872.919 106.252" fill="#A7A04B"/>
<path d="M880.965 193.117C876.953 192.349 876.371 190.193 873.238 189.536C871.138 189.105 870.407 189.199 868.513 189.143L861.443 178.641C862.325 178.584 863.161 178.565 863.882 178.565C865.327 178.565 866.319 178.641 866.319 178.641L870.519 177.515L873.426 176.728C874.457 177.628 875.509 178.416 876.615 179.072C876.897 179.223 877.158 179.372 877.441 179.503C878.546 183.779 879.765 188.485 880.965 193.117Z" fill="black"/>
<path d="M877.441 179.502C877.158 179.371 876.897 179.222 876.615 179.071C875.509 178.415 874.457 177.627 873.426 176.727C869.469 162.606 869.694 147.866 866.451 127.274C866.369 126.753 866.328 126.226 866.326 125.699C866.326 124.542 866.525 123.387 866.938 122.305L869.226 116.191L872.92 106.253L876.446 96.8006L884.492 99.8953L892.593 102.989L885.954 105.595L877.497 108.915C877.497 108.915 877.177 109.966 876.671 111.841C874.495 119.979 869.02 143.722 873.165 163.225C873.165 163.225 874.102 166.75 875.49 172.038C876.053 174.251 876.727 176.783 877.441 179.502" fill="#583622"/>
<path d="M886.066 213.07L886.01 212.901C884.773 207.893 882.898 200.598 880.965 193.116C879.765 188.484 878.546 183.777 877.441 179.501C876.727 176.782 876.053 174.25 875.49 172.037C874.102 166.749 873.165 163.224 873.165 163.224C869.019 143.721 874.495 119.978 876.671 111.84C877.177 109.965 877.497 108.914 877.497 108.914L885.954 105.594L892.593 102.988L892.742 103.045L890.305 113.47C882.811 128.45 879.353 144.498 879.146 161.405L880.797 173.762L881.771 181.021L883.385 193.08L886.066 213.07" fill="#583622"/>
<path d="M866.563 65.2764C866.712 68.8204 867.107 72.3644 867.763 75.9097C867.763 76.0404 867.8 76.1524 867.819 76.2844C867.931 79.7164 868.363 83.2604 868.926 86.599C869.526 90.2737 870.294 93.7244 870.97 96.5377C871.832 100.119 872.544 102.671 872.582 103.344C872.602 104.414 872.714 105.37 872.919 106.252C873.539 108.802 874.89 110.622 876.671 111.84C880.178 114.298 885.316 114.466 889.366 113.678C889.684 113.622 890.004 113.547 890.304 113.471L890.586 113.416C892.499 113.096 894.748 112.496 897.055 111.578C899.006 110.79 900.994 109.759 902.831 108.483C905.514 106.608 907.407 103.983 908.458 101.039C909.695 97.6257 909.79 93.7804 908.664 90.143C903.656 73.9964 903.075 58.5057 904.519 51.4923C906.395 42.4537 899.268 21.8617 885.296 23.9057C884.772 23.9631 884.228 24.075 883.666 24.2243C883.534 24.263 883.403 24.3004 883.272 24.3377C882.634 24.5057 881.996 24.731 881.34 25.0124C880.778 25.351 880.234 25.6884 879.708 26.0257C879.071 26.419 878.49 26.8124 877.927 27.2257C876.502 28.2204 875.302 29.2137 874.234 30.263C873.202 31.239 872.32 32.271 871.57 33.395C870.951 34.3137 870.407 35.2897 869.975 36.3204C869.526 37.371 869.17 38.4777 868.888 39.6777C868.719 40.503 868.57 41.3284 868.419 42.1724C867.482 47.3671 866.826 52.523 866.58 57.643C866.468 60.1937 866.451 62.7444 866.563 65.2764" fill="#65B9E2"/>
<path d="M869.535 89.9851C869.535 95.0571 872.545 102.672 872.582 103.345C872.602 104.414 872.714 105.37 872.919 106.253C873.539 108.802 873.838 111.1 875.619 112.32C879.126 114.776 883.388 115.452 890.304 113.472C889.65 103.178 900.327 93.7397 899.111 87.5384C898.943 86.581 895.062 64.2211 894.95 63.2464C893.791 53.7971 879.814 51.929 877.151 57.8717C877.151 57.8717 877.092 80.0184 869.535 89.9851" fill="#3792BD"/>
<path d="M885.789 24.505L890.75 27.729C890.75 27.729 890.711 33.297 884.538 37.281C878.364 41.2663 869.946 45.4863 869.946 45.4863L873.168 36.989L869.535 36.2263C869.535 36.2263 874.869 25.033 885.789 24.505" fill="white"/>
<path d="M873.042 37.45L869.123 26.5261L883.366 20.0527L886.602 26.5261C887.763 30.6634 874.667 40.198 873.042 37.45Z" fill="#FFA27D"/>
<path d="M873.315 32.3105L866.559 32.0479C865.044 31.9892 863.659 31.2145 862.828 29.9479C860.653 26.6305 857.904 19.0959 857.429 13.3292C856.697 4.46657 865.768 0.307861 871.787 0.755861C877.804 1.20519 883.937 4.49322 885.76 11.8826C887.584 19.2719 883.307 26.3332 883.307 26.3332L873.315 32.3105" fill="#FFA27D"/>
<path d="M857.817 16.1866C857.817 16.1866 859.865 18.6706 863.654 20.0332C864.389 20.2972 864.968 20.8785 865.3 21.5852L866.508 24.1465L869.686 26.0159L870.46 27.5199C871.189 28.9359 872.697 29.7932 874.282 29.6332C876.698 29.3906 880.556 28.2425 885.372 24.2012C885.372 24.2012 890.492 13.5985 883.448 5.46788C876.402 -2.66145 866.494 0.21852 863.318 1.90785C860.141 3.59719 852.617 10.1092 857.817 16.1866" fill="black"/>
<path d="M869.001 21.457C869.27 21.7756 869.441 22.1677 869.582 22.561C870.006 23.7277 870.221 24.9676 870.217 26.2076C870.214 26.6943 870.175 27.197 869.953 27.629C869.73 28.061 869.285 28.4103 868.798 28.3876C868.138 28.3556 867.697 27.7116 867.403 27.121C866.846 25.997 865.911 24.241 866.085 22.929C866.266 21.5556 867.814 20.057 869.001 21.457Z" fill="#FFA27D"/>
<path d="M870.747 110.13C870.466 110.186 866.542 117.484 866.542 117.484L862.006 122.661L858.658 130.917L858.527 134.222L859.057 136.91C859.411 138.724 860.895 138.173 860.799 136.861L861.862 140.186C862.346 141.59 863.627 141.338 863.547 139.906L863.335 135.713L865.361 140.576C865.994 141.816 867.427 141.177 867.063 139.982L865.91 137.09L866.861 133.494L867.225 136.833L868.361 138.972C869.181 140.184 870.159 139.212 869.639 137.722L868.907 135.82L870.799 131.61C871.327 130.438 871.623 129.177 871.67 127.893L871.785 124.832L872.898 121.076L873.869 113.122L870.747 110.13" fill="#FFA27D"/>
<path d="M877.066 59.6934L878.791 83.9974C875.847 94.4187 870.299 105.933 866.542 117.483L873.993 121.693C881.054 114.048 887.711 101.957 894.311 89.2347L894.901 59.8934C896.045 41.5 876.765 46.504 877.066 59.6934Z" fill="#65B9E2"/>
<path d="M802.011 163.067C800.883 161.808 793.48 155.977 793.48 155.977C793.48 155.977 797.677 153.063 796.881 148.931L793.549 141.525H777.403C777.387 141.987 777.385 142.399 777.408 142.715C777.839 148.416 771.001 151.037 777.391 152.103C777.391 152.103 782.827 157.721 783.149 158.347C784.384 160.744 794.176 163.301 795.047 163.883C795.917 164.463 796.903 166.64 798.387 167.295C802.011 168.892 804.28 165.599 802.011 163.067Z" fill="#998675"/>
<path d="M817.706 174.578C813.449 177.156 810.126 168.658 810.026 166.915C809.998 166.323 809.505 165.428 808.837 164.376C807.547 162.327 805.635 159.724 805.187 157.622C804.509 154.427 802.626 151.378 802.626 151.378L799.641 154.467C799.635 154.479 798.829 157.464 799.025 160.27C799.217 163.082 802.702 172.375 803.382 173.92C804.055 175.472 806.379 177.603 808.702 179.73C811.026 181.862 809.091 184.667 805.898 184.475C802.702 184.283 800.281 179.927 799.507 177.894C798.735 175.86 796.794 169.663 795.831 168.019C794.861 166.37 794.17 164.29 791.457 162.448C788.75 160.612 786.629 155.623 786.629 155.623L784.306 154.95C788.57 160.56 782.273 164.918 782.273 164.918C782.273 164.918 789.679 170.75 790.806 172.01C793.077 174.542 790.806 177.835 787.181 176.238C785.694 175.582 784.713 173.403 783.842 172.823C782.97 172.242 777.086 168.03 775.854 165.638C775.529 165.01 776.273 162.594 776.273 162.594C770.806 160.671 768.109 156.646 767.685 150.942C767.539 149.066 768.499 145.471 767.395 144.884C757.863 139.83 749.229 132.471 752.833 115.26C754.795 131.195 768.663 140.439 768.663 140.439C768.663 140.439 771.858 132.888 775.402 130.344C779.857 127.15 784.695 119.319 785.085 118.646C785.467 117.966 789.633 105.286 789.633 105.286C789.633 105.286 807.123 110.479 806.158 116.09C805.187 121.707 808.795 131.012 809.766 136.042C810.737 141.079 809.185 144.744 809.766 147.846C810.347 150.942 812.861 162.948 813.994 165.318C814.889 167.188 821.551 172.242 817.706 174.578" fill="white"/>
<path d="M785.929 116.351C785.929 116.351 791.301 120.956 798.851 121.155C805.247 121.324 806.045 119.557 806.045 119.557L806.063 116.771L802.391 111.733L788.082 109.969L785.929 116.351" fill="black"/>
<path d="M812.866 116.423C812.589 116.864 812.143 117.208 811.502 117.428C808.83 118.343 805.951 116.71 805.951 116.71C804.811 117.179 802.17 119.962 796.534 117.735C795.433 117.368 788.61 114.436 786.757 113.895L788.884 107.558L795.861 102.095L806.99 104.307C806.99 104.307 809.571 107.243 811.502 110.34C812.971 112.688 813.748 115.034 812.866 116.423Z" fill="white"/>
<path d="M798.852 106.021C799.032 105.685 804.006 108.928 805.229 110.944C805.818 111.914 809.793 117.657 811.608 116.076C813.422 114.494 811.742 111.421 809.608 108.617C807.053 105.266 804.857 103.589 804.857 103.589L798.852 106.021" fill="#706354"/>
<path d="M801.16 106.696C801.308 106.416 805.433 109.106 806.448 110.777C806.937 111.584 810.235 116.346 811.739 115.034C813.243 113.722 811.851 111.175 810.079 108.849C807.96 106.069 806.14 104.679 806.14 104.679L801.16 106.696Z" fill="#F15A24"/>
<path d="M805.005 110.615C804.997 110.605 804.989 110.593 804.979 110.582C804.989 110.593 804.997 110.605 805.006 110.615C805.005 110.615 805.005 110.615 805.005 110.615ZM810.079 108.849C807.961 106.069 806.141 104.678 806.141 104.678L806.11 104.69C805.997 104.582 805.889 104.481 805.789 104.389L806.99 104.307L810.079 108.849V108.849ZM800.929 105.181L801.546 104.678L802.295 104.626L800.929 105.181Z" fill="#DECBB8"/>
<path d="M805.006 110.615C804.996 110.605 804.988 110.593 804.979 110.582C803.563 108.589 799.656 106.214 799.656 106.214L800.928 105.181L802.295 104.626L805.788 104.389C805.888 104.481 805.996 104.582 806.11 104.69L801.21 106.674C801.184 106.674 801.167 106.681 801.16 106.695L801.21 106.674C801.644 106.677 804.599 108.605 805.972 110.151C805.654 110.298 805.331 110.454 805.006 110.615Z" fill="#624F3C"/>
<path d="M805.972 110.15C804.599 108.604 801.644 106.676 801.209 106.673L806.109 104.689L806.14 104.677C806.14 104.677 807.96 106.068 810.079 108.848C808.873 108.958 807.471 109.461 805.972 110.15V110.15ZM801.16 106.694C801.167 106.68 801.184 106.673 801.209 106.673L801.16 106.694Z" fill="#D2481A"/>
<path d="M790.827 91.3959C793.984 89.3986 804.042 83.8453 808.66 94.9133C808.66 94.9133 816.868 95.3893 817.853 97.6093C818.291 98.5919 818.916 99.9293 818.491 100.703C817.699 102.135 815.432 103.228 815.432 103.228C815.432 103.228 806.953 107.431 802.572 107.127C798.192 106.821 788.883 107.559 788.883 107.559C786.756 100.783 786.232 95.1506 790.827 91.3959" fill="white"/>
<path d="M812.866 116.424C812.589 116.865 812.143 117.209 811.502 117.429C808.83 118.344 805.951 116.71 805.951 116.71C805.951 116.71 805.126 117.233 803.657 117.961C803.037 115.089 801.702 112.149 799.998 109.174C799.998 109.174 804.29 111.848 805.617 113.646C807.206 115.801 810.423 118.368 812.866 116.424" fill="#998675"/>
<path d="M813.85 99.2847L816.926 97.5194L817.404 98.9487L816.588 100.077L816.692 101.414L816.183 100.285L814.534 100.238L813.85 99.2847" fill="#1A1A1A"/>
<path d="M808.83 164.359C807.547 162.326 805.635 159.723 805.187 157.621C804.509 154.426 802.626 151.377 802.626 151.377L799.641 154.466C799.709 154.362 800.534 151.813 799.922 148.545C802.617 148.037 803.907 147.517 804.425 144.883L803.847 150.581C803.847 150.581 805.671 155.077 806.066 157.11C806.449 159.078 808.69 164.051 808.83 164.359Z" fill="#998675"/>
<path d="M784.306 154.949L786.708 146.003C786.708 146.003 785.322 155.219 788.883 159.688L784.306 154.949" fill="#998675"/>
<path d="M789.068 96.5039C789.068 96.5039 786.973 89.3933 789.239 83.7879C789.318 83.5933 789.585 83.5666 789.695 83.7439C791.263 86.2812 793.257 89.0586 795.545 91.9986L789.068 96.5039Z" fill="white"/>
<path d="M790.039 94.25C789.627 92.2647 788.763 87.9807 789.517 84.4887C790.771 86.422 792.744 88.7967 794.572 91.1767C792.959 91.598 791.28 93.0287 790.039 94.25Z" fill="#998675"/>
<path d="M796.798 91.5918C796.798 91.5918 796.327 83.9851 799.791 79.3065C799.91 79.1451 800.178 79.2092 800.246 79.4185C801.218 82.4092 802.527 86.3038 804.109 90.0745L796.798 91.5918" fill="white"/>
<path d="M798.16 89.668C798.176 87.716 798.419 83.9133 800.259 80.6227C801.083 83.1253 801.765 85.7653 802.968 88.74C801.337 88.58 799.605 89.04 798.16 89.668" fill="#998675"/>
</svg>
